light-display-narrow vv(12.9--61.0)-(80.5-100.0)-10.0-0.0-(0.0-0.0).ufo
<glyph name="be-cy.sc" format="1">
  <advance width="1056"/>
  <outline>
    <contour>
      <point x="564" y="-144" type="move" name="mark0"/>
    </contour>
    <contour>
      <point x="398" y="774" type="curve"/>
      <point x="398" y="1240" type="line"/>
      <point x="784" y="1233" type="line"/>
      <point x="832" y="1001" type="line"/>
      <point x="933" y="1001" type="line"/>
      <point x="916" y="1292" type="line"/>
      <point x="90" y="1292" type="line"/>
      <point x="90" y="1242" type="line"/>
      <point x="247" y="1228" type="line"/>
      <point x="247" y="66" type="line"/>
      <point x="89" y="52" type="line"/>
      <point x="89" y="0" type="line"/>
      <point x="328" y="0" type="line" smooth="yes"/>
      <point x="392" y="0"/>
      <point x="546" y="-14"/>
      <point x="583" y="-14" type="curve" smooth="yes"/>
      <point x="824" y="-14"/>
      <point x="993" y="128"/>
      <point x="993" y="415" type="curve" smooth="yes"/>
      <point x="993" y="646"/>
      <point x="860" y="799"/>
      <point x="599" y="799" type="curve" smooth="yes"/>
      <point x="533" y="799"/>
      <point x="433" y="785"/>
    </contour>
    <contour>
      <point x="398" y="67" type="curve"/>
      <point x="398" y="704" type="line"/>
      <point x="426" y="713"/>
      <point x="498" y="717"/>
      <point x="558" y="717" type="curve" smooth="yes"/>
      <point x="730" y="717"/>
      <point x="833" y="619"/>
      <point x="833" y="407" type="curve" smooth="yes"/>
      <point x="833" y="152"/>
      <point x="734" y="51"/>
      <point x="557" y="51" type="curve" smooth="yes"/>
      <point x="468" y="51"/>
      <point x="438" y="61"/>
    </contour>
  </outline>
</glyph>
<glyph name="che-cy.sc" format="1">
  <advance width="1080"/>
  <outline>
    <contour>
      <point x="502" y="1263" type="move" name="top"/>
    </contour>
    <contour>
      <point x="544" y="648" type="move" name="center"/>
    </contour>
    <contour>
      <point x="1044" y="0" type="move" name="bottomright"/>
    </contour>
    <contour>
      <point x="715" y="602" type="curve"/>
      <point x="715" y="68" type="line"/>
      <point x="554" y="52" type="line"/>
      <point x="554" y="0" type="line"/>
      <point x="1005" y="0" type="line"/>
      <point x="1005" y="53" type="line"/>
      <point x="866" y="68" type="line"/>
      <point x="866" y="1228" type="line"/>
      <point x="1003" y="1242" type="line"/>
      <point x="1003" y="1292" type="line"/>
      <point x="575" y="1292" type="line"/>
      <point x="575" y="1242" type="line"/>
      <point x="715" y="1227" type="line"/>
      <point x="715" y="657" type="line"/>
      <point x="672" y="630"/>
      <point x="564" y="601"/>
      <point x="483" y="601" type="curve" smooth="yes"/>
      <point x="288" y="601"/>
      <point x="266" y="655"/>
      <point x="266" y="969" type="curve" smooth="yes"/>
      <point x="266" y="1224" type="line"/>
      <point x="401" y="1242" type="line"/>
      <point x="401" y="1292" type="line"/>
      <point x="19" y="1292" type="line"/>
      <point x="19" y="1242" type="line"/>
      <point x="115" y="1225" type="line"/>
      <point x="115" y="928" type="line" smooth="yes"/>
      <point x="115" y="677"/>
      <point x="177" y="528"/>
      <point x="412" y="528" type="curve" smooth="yes"/>
      <point x="506" y="528"/>
      <point x="639" y="556"/>
    </contour>
  </outline>
</glyph>
<glyph name="cheabkhasian-cy.sc" format="1">
  <advance width="1240"/>
  <outline>
    <contour>
      <point x="1136" y="46" type="curve"/>
      <point x="1142" y="279" type="line"/>
      <point x="1041" y="275" type="line"/>
      <point x="1011" y="114" type="line"/>
      <point x="969" y="83"/>
      <point x="899" y="50"/>
      <point x="761" y="50" type="curve" smooth="yes"/>
      <point x="542" y="50"/>
      <point x="425" y="348"/>
      <point x="423" y="656" type="curve"/>
      <point x="1160" y="654" type="line"/>
      <point x="1167" y="685"/>
      <point x="1169" y="711"/>
      <point x="1169" y="789" type="curve" smooth="yes"/>
      <point x="1168" y="1100"/>
      <point x="1003" y="1306"/>
      <point x="771" y="1306" type="curve" smooth="yes"/>
      <point x="507" y="1306"/>
      <point x="298" y="1052"/>
      <point x="273" y="703" type="curve"/>
      <point x="163" y="705"/>
      <point x="135" y="763"/>
      <point x="135" y="816" type="curve" smooth="yes"/>
      <point x="135" y="852"/>
      <point x="157" y="909"/>
      <point x="168" y="923" type="curve"/>
      <point x="57" y="943" type="line"/>
      <point x="39" y="931"/>
      <point x="9" y="850"/>
      <point x="9" y="833" type="curve" smooth="yes"/>
      <point x="9" y="705"/>
      <point x="130" y="648"/>
      <point x="270" y="644" type="curve"/>
      <point x="273" y="270"/>
      <point x="456" y="-20"/>
      <point x="734" y="-20" type="curve" smooth="yes"/>
      <point x="951" y="-20"/>
      <point x="1049" y="44"/>
    </contour>
    <contour>
      <point x="1008" y="703" type="curve"/>
      <point x="421" y="703" type="line"/>
      <point x="431" y="1108"/>
      <point x="577" y="1247"/>
      <point x="738" y="1247" type="curve" smooth="yes"/>
      <point x="935" y="1247"/>
      <point x="1013" y="1034"/>
      <point x="1013" y="819" type="curve" smooth="yes"/>
      <point x="1014" y="777"/>
      <point x="1012" y="741"/>
    </contour>
  </outline>
</glyph>
<glyph name="chedescender-cy.sc" format="1">
  <advance width="1093"/>
  <outline>
    <contour>
      <point x="1044" y="68" type="curve"/>
      <point x="868" y="68" type="line"/>
      <point x="868" y="1228" type="line"/>
      <point x="1005" y="1242" type="line"/>
      <point x="1005" y="1292" type="line"/>
      <point x="576" y="1292" type="line"/>
      <point x="576" y="1242" type="line"/>
      <point x="717" y="1227" type="line"/>
      <point x="717" y="657" type="line"/>
      <point x="673" y="630"/>
      <point x="565" y="601"/>
      <point x="485" y="601" type="curve" smooth="yes"/>
      <point x="289" y="601"/>
      <point x="267" y="655"/>
      <point x="267" y="969" type="curve" smooth="yes"/>
      <point x="267" y="1224" type="line"/>
      <point x="402" y="1242" type="line"/>
      <point x="402" y="1292" type="line"/>
      <point x="21" y="1292" type="line"/>
      <point x="21" y="1242" type="line"/>
      <point x="116" y="1225" type="line"/>
      <point x="116" y="928" type="line" smooth="yes"/>
      <point x="116" y="677"/>
      <point x="178" y="528"/>
      <point x="414" y="528" type="curve" smooth="yes"/>
      <point x="508" y="528"/>
      <point x="640" y="556"/>
      <point x="717" y="602" type="curve"/>
      <point x="717" y="68" type="line"/>
      <point x="555" y="52" type="line"/>
      <point x="555" y="0" type="line"/>
      <point x="890" y="0" type="line"/>
      <point x="894" y="9"/>
      <point x="907" y="-267"/>
      <point x="907" y="-292" type="curve"/>
      <point x="1003" y="-292" type="line"/>
      <point x="1016" y="-115"/>
      <point x="1032" y="-68"/>
    </contour>
  </outline>
</glyph>
<glyph name="chedescenderabkhasian-cy.sc" format="1">
  <advance width="1240"/>
  <outline>
    <contour>
      <point x="1136" y="46" type="curve"/>
      <point x="1142" y="279" type="line"/>
      <point x="1041" y="275" type="line"/>
      <point x="1011" y="114" type="line"/>
      <point x="969" y="83"/>
      <point x="899" y="50"/>
      <point x="761" y="50" type="curve" smooth="yes"/>
      <point x="542" y="50"/>
      <point x="425" y="348"/>
      <point x="423" y="656" type="curve"/>
      <point x="1160" y="654" type="line"/>
      <point x="1167" y="685"/>
      <point x="1169" y="711"/>
      <point x="1169" y="789" type="curve" smooth="yes"/>
      <point x="1168" y="1100"/>
      <point x="1003" y="1306"/>
      <point x="771" y="1306" type="curve" smooth="yes"/>
      <point x="507" y="1306"/>
      <point x="298" y="1052"/>
      <point x="273" y="703" type="curve"/>
      <point x="163" y="705"/>
      <point x="135" y="763"/>
      <point x="135" y="816" type="curve" smooth="yes"/>
      <point x="135" y="852"/>
      <point x="157" y="909"/>
      <point x="168" y="923" type="curve"/>
      <point x="57" y="943" type="line"/>
      <point x="39" y="931"/>
      <point x="9" y="850"/>
      <point x="9" y="833" type="curve" smooth="yes"/>
      <point x="9" y="705"/>
      <point x="130" y="648"/>
      <point x="270" y="644" type="curve"/>
      <point x="273" y="266"/>
      <point x="451" y="-19"/>
      <point x="726" y="-20" type="curve"/>
      <point x="742" y="-53"/>
      <point x="767" y="-121"/>
      <point x="767" y="-186" type="curve" smooth="yes"/>
      <point x="767" y="-291"/>
      <point x="726" y="-312"/>
      <point x="651" y="-312" type="curve" smooth="yes"/>
      <point x="637" y="-312"/>
      <point x="600" y="-305"/>
      <point x="581" y="-296" type="curve"/>
      <point x="580" y="-368" type="line"/>
      <point x="607" y="-378"/>
      <point x="656" y="-388"/>
      <point x="689" y="-388" type="curve" smooth="yes"/>
      <point x="810" y="-388"/>
      <point x="882" y="-349"/>
      <point x="887" y="-242" type="curve" smooth="yes"/>
      <point x="890" y="-156"/>
      <point x="837" y="-54"/>
      <point x="804" y="-19" type="curve"/>
      <point x="973" y="-10"/>
      <point x="1060" y="44"/>
    </contour>
    <contour>
      <point x="1008" y="703" type="curve"/>
      <point x="421" y="703" type="line"/>
      <point x="431" y="1108"/>
      <point x="577" y="1247"/>
      <point x="738" y="1247" type="curve" smooth="yes"/>
      <point x="935" y="1247"/>
      <point x="1013" y="1034"/>
      <point x="1013" y="819" type="curve" smooth="yes"/>
      <point x="1014" y="777"/>
      <point x="1012" y="741"/>
    </contour>
  </outline>
</glyph>
<glyph name="chekhakassian-cy.sc" format="1">
  <advance width="1089"/>
  <outline>
    <contour>
      <point x="522" y="-144" type="move" name="mark0"/>
    </contour>
    <contour>
      <point x="693" y="0" type="curve"/>
      <point x="1006" y="0" type="line"/>
      <point x="1006" y="53" type="line"/>
      <point x="868" y="68" type="line"/>
      <point x="868" y="1228" type="line"/>
      <point x="1005" y="1242" type="line"/>
      <point x="1005" y="1292" type="line"/>
      <point x="576" y="1292" type="line"/>
      <point x="576" y="1242" type="line"/>
      <point x="717" y="1227" type="line"/>
      <point x="717" y="657" type="line"/>
      <point x="673" y="630"/>
      <point x="565" y="601"/>
      <point x="485" y="601" type="curve" smooth="yes"/>
      <point x="289" y="601"/>
      <point x="267" y="655"/>
      <point x="267" y="969" type="curve" smooth="yes"/>
      <point x="267" y="1224" type="line"/>
      <point x="402" y="1242" type="line"/>
      <point x="402" y="1292" type="line"/>
      <point x="21" y="1292" type="line"/>
      <point x="21" y="1242" type="line"/>
      <point x="116" y="1225" type="line"/>
      <point x="116" y="928" type="line" smooth="yes"/>
      <point x="116" y="677"/>
      <point x="178" y="528"/>
      <point x="414" y="528" type="curve" smooth="yes"/>
      <point x="508" y="528"/>
      <point x="640" y="556"/>
      <point x="717" y="602" type="curve"/>
      <point x="717" y="66" type="line"/>
      <point x="552" y="66" type="line"/>
      <point x="550" y="113"/>
      <point x="534" y="-320"/>
      <point x="534" y="-292" type="curve"/>
      <point x="630" y="-292" type="line"/>
      <point x="638" y="-255"/>
      <point x="687" y="22"/>
    </contour>
  </outline>
</glyph>
<glyph name="cheverticalstroke-cy.sc" format="1">
  <advance width="1094"/>
  <outline>
    <contour>
      <point x="533" y="-144" type="move" name="mark0"/>
    </contour>
    <contour>
      <point x="729" y="595" type="curve"/>
      <point x="729" y="63" type="line"/>
      <point x="566" y="52" type="line"/>
      <point x="566" y="0" type="line"/>
      <point x="1018" y="0" type="line"/>
      <point x="1018" y="53" type="line"/>
      <point x="881" y="68" type="line"/>
      <point x="881" y="1228" type="line"/>
      <point x="1018" y="1242" type="line"/>
      <point x="1018" y="1292" type="line"/>
      <point x="588" y="1292" type="line"/>
      <point x="588" y="1241" type="line"/>
      <point x="729" y="1226" type="line"/>
      <point x="729" y="656" type="line"/>
      <point x="694" y="631"/>
      <point x="617" y="606"/>
      <point x="542" y="599" type="curve"/>
      <point x="542" y="870" type="line"/>
      <point x="462" y="870" type="line"/>
      <point x="462" y="601" type="line"/>
      <point x="296" y="604"/>
      <point x="268" y="659"/>
      <point x="268" y="969" type="curve" smooth="yes"/>
      <point x="268" y="1224" type="line"/>
      <point x="406" y="1242" type="line"/>
      <point x="406" y="1292" type="line"/>
      <point x="21" y="1292" type="line"/>
      <point x="21" y="1242" type="line"/>
      <point x="119" y="1222" type="line"/>
      <point x="119" y="928" type="line" smooth="yes"/>
      <point x="119" y="666"/>
      <point x="187" y="528"/>
      <point x="420" y="528" type="curve" smooth="yes"/>
      <point x="432" y="528"/>
      <point x="447" y="528"/>
      <point x="462" y="530" type="curve"/>
      <point x="462" y="321" type="line"/>
      <point x="542" y="321" type="line"/>
      <point x="542" y="527" type="line"/>
      <point x="611" y="538"/>
      <point x="676" y="556"/>
    </contour>
  </outline>
</glyph>
<glyph name="de-cy.sc" format="1">
  <advance width="1153"/>
  <outline>
    <contour>
      <point x="1066" y="68" type="curve"/>
      <point x="928" y="68" type="line"/>
      <point x="928" y="1228" type="line"/>
      <point x="1075" y="1242" type="line"/>
      <point x="1075" y="1292" type="line"/>
      <point x="212" y="1292" type="line"/>
      <point x="212" y="1242" type="line"/>
      <point x="370" y="1228" type="line"/>
      <point x="370" y="1078" type="line" smooth="yes"/>
      <point x="370" y="423"/>
      <point x="221" y="116"/>
      <point x="171" y="68" type="curve"/>
      <point x="57" y="68" type="line"/>
      <point x="56" y="123"/>
      <point x="41" y="-315"/>
      <point x="40" y="-290" type="curve"/>
      <point x="136" y="-290" type="line"/>
      <point x="144" y="-272"/>
      <point x="193" y="13"/>
      <point x="200" y="0" type="curve"/>
      <point x="913" y="0" type="line"/>
      <point x="918" y="-1"/>
      <point x="934" y="-279"/>
      <point x="936" y="-292" type="curve"/>
      <point x="1031" y="-292" type="line"/>
      <point x="1033" y="-299"/>
      <point x="1066" y="132"/>
    </contour>
    <contour>
      <point x="463" y="1068" type="curve"/>
      <point x="463" y="1223" type="line"/>
      <point x="779" y="1223" type="line"/>
      <point x="777" y="68" type="line"/>
      <point x="299" y="68" type="line"/>
      <point x="346" y="126"/>
      <point x="464" y="496"/>
    </contour>
  </outline>
</glyph>
<glyph name="dje-cy.sc" format="1">
  <advance width="1303"/>
  <outline>
    <contour>
      <point x="524" y="-144" type="move" name="mark0"/>
    </contour>
    <contour>
      <point x="636" y="667" type="curve"/>
      <point x="636" y="1240" type="line"/>
      <point x="950" y="1227" type="line"/>
      <point x="981" y="892" type="line"/>
      <point x="1076" y="892" type="line"/>
      <point x="1076" y="1292" type="line"/>
      <point x="84" y="1292" type="line"/>
      <point x="63" y="892" type="line"/>
      <point x="160" y="892" type="line"/>
      <point x="203" y="1227" type="line"/>
      <point x="480" y="1240" type="line"/>
      <point x="480" y="66" type="line"/>
      <point x="273" y="52" type="line"/>
      <point x="273" y="0" type="line"/>
      <point x="805" y="0" type="line"/>
      <point x="805" y="52" type="line"/>
      <point x="636" y="63" type="line"/>
      <point x="636" y="620" type="line"/>
      <point x="710" y="661"/>
      <point x="777" y="670"/>
      <point x="859" y="670" type="curve" smooth="yes"/>
      <point x="1032" y="670"/>
      <point x="1087" y="539"/>
      <point x="1087" y="311" type="curve" smooth="yes"/>
      <point x="1087" y="-62"/>
      <point x="1022" y="-269"/>
      <point x="858" y="-269" type="curve" smooth="yes"/>
      <point x="823" y="-269"/>
      <point x="796" y="-271"/>
      <point x="784" y="-272" type="curve"/>
      <point x="787" y="-331" type="line"/>
      <point x="804" y="-340"/>
      <point x="853" y="-337"/>
      <point x="882" y="-337" type="curve" smooth="yes"/>
      <point x="1115" y="-337"/>
      <point x="1242" y="-36"/>
      <point x="1242" y="310" type="curve" smooth="yes"/>
      <point x="1242" y="509"/>
      <point x="1175" y="737"/>
      <point x="896" y="737" type="curve" smooth="yes"/>
      <point x="832" y="737"/>
      <point x="696" y="721"/>
    </contour>
  </outline>
</glyph>
<glyph name="dzeabkhasian-cy.sc" format="1">
  <advance width="1010"/>
  <outline>
    <contour>
      <point x="507" y="720" type="curve"/>
      <point x="879" y="1249" type="line"/>
      <point x="879" y="1292" type="line"/>
      <point x="151" y="1292" type="line"/>
      <point x="168" y="1038" type="line"/>
      <point x="262" y="1038" type="line"/>
      <point x="287" y="1206" type="line"/>
      <point x="705" y="1212" type="line"/>
      <point x="693" y="1266"/>
      <point x="387" y="700"/>
      <point x="366" y="735" type="curve"/>
      <point x="388" y="687" type="line"/>
      <point x="409" y="685"/>
      <point x="431" y="685"/>
      <point x="452" y="685" type="curve"/>
      <point x="683" y="670"/>
      <point x="752" y="584"/>
      <point x="752" y="384" type="curve" smooth="yes"/>
      <point x="752" y="234"/>
      <point x="651" y="73"/>
      <point x="451" y="73" type="curve" smooth="yes"/>
      <point x="332" y="73"/>
      <point x="291" y="105"/>
      <point x="277" y="109" type="curve"/>
      <point x="241" y="296" type="line"/>
      <point x="154" y="296" type="line"/>
      <point x="124" y="42" type="line"/>
      <point x="166" y="38"/>
      <point x="271" y="-8"/>
      <point x="438" y="-8" type="curve" smooth="yes"/>
      <point x="736" y="-8"/>
      <point x="916" y="132"/>
      <point x="916" y="392" type="curve" smooth="yes"/>
      <point x="916" y="633"/>
      <point x="808" y="727"/>
      <point x="596" y="727" type="curve" smooth="yes"/>
      <point x="564" y="727"/>
      <point x="536" y="725"/>
    </contour>
  </outline>
</glyph>
<glyph name="dzhe-cy.sc" format="1">
  <advance width="1259"/>
  <outline>
    <contour>
      <point x="718" y="0" type="curve"/>
      <point x="1174" y="0" type="line"/>
      <point x="1174" y="52" type="line"/>
      <point x="1037" y="66" type="line"/>
      <point x="1037" y="1228" type="line"/>
      <point x="1159" y="1242" type="line"/>
      <point x="1159" y="1292" type="line"/>
      <point x="757" y="1292" type="line"/>
      <point x="757" y="1242" type="line"/>
      <point x="887" y="1228" type="line"/>
      <point x="887" y="71" type="line"/>
      <point x="371" y="71" type="line"/>
      <point x="371" y="1228" type="line"/>
      <point x="517" y="1242" type="line"/>
      <point x="517" y="1292" type="line"/>
      <point x="93" y="1292" type="line"/>
      <point x="93" y="1242" type="line"/>
      <point x="222" y="1228" type="line"/>
      <point x="222" y="68" type="line"/>
      <point x="87" y="52" type="line"/>
      <point x="87" y="0" type="line"/>
      <point x="558" y="0" type="line"/>
      <point x="561" y="7"/>
      <point x="588" y="-332"/>
      <point x="588" y="-290" type="curve"/>
      <point x="690" y="-290" type="line"/>
      <point x="697" y="-184"/>
      <point x="709" y="-132"/>
    </contour>
  </outline>
</glyph>
<glyph name="e-cy.sc" format="1">
  <advance width="1038"/>
  <outline>
    <contour>
      <point x="611" y="0" type="move" name="mark0"/>
    </contour>
    <contour>
      <point x="927" y="46" type="curve"/>
      <point x="962" y="261" type="line"/>
      <point x="872" y="273" type="line"/>
      <point x="807" y="114" type="line"/>
      <point x="768" y="72"/>
      <point x="722" y="49"/>
      <point x="603" y="49" type="curve" smooth="yes"/>
      <point x="375" y="49"/>
      <point x="259" y="335"/>
      <point x="246" y="633" type="curve"/>
      <point x="761" y="615" type="line"/>
      <point x="761" y="716" type="line"/>
      <point x="246" y="699" type="line"/>
      <point x="259" y="1024"/>
      <point x="406" y="1237"/>
      <point x="600" y="1237" type="curve" smooth="yes"/>
      <point x="721" y="1237"/>
      <point x="771" y="1211"/>
      <point x="804" y="1184" type="curve"/>
      <point x="842" y="999" type="line"/>
      <point x="940" y="999" type="line"/>
      <point x="951" y="1248" type="line"/>
      <point x="887" y="1262"/>
      <point x="762" y="1306"/>
      <point x="619" y="1306" type="curve" smooth="yes"/>
      <point x="303" y="1306"/>
      <point x="67" y="1019"/>
      <point x="67" y="656" type="curve" smooth="yes"/>
      <point x="67" y="250"/>
      <point x="265" y="-20"/>
      <point x="596" y="-20" type="curve" smooth="yes"/>
      <point x="782" y="-20"/>
      <point x="845" y="43"/>
    </contour>
  </outline>
</glyph>
<glyph name="eldescender-cy.sc" format="1">
  <advance width="1183"/>
  <outline>
    <contour>
      <point x="1117" y="68" type="curve"/>
      <point x="936" y="68" type="line"/>
      <point x="936" y="1228" type="line"/>
      <point x="1081" y="1242" type="line"/>
      <point x="1081" y="1292" type="line"/>
      <point x="201" y="1292" type="line"/>
      <point x="201" y="1242" type="line"/>
      <point x="376" y="1228" type="line"/>
      <point x="376" y="1027" type="line" smooth="yes"/>
      <point x="376" y="584"/>
      <point x="332" y="297"/>
      <point x="256" y="166" type="curve"/>
      <point x="232" y="130"/>
      <point x="205" y="106"/>
      <point x="166" y="106" type="curve" smooth="yes"/>
      <point x="105" y="106"/>
      <point x="71" y="111"/>
      <point x="50" y="115" type="curve"/>
      <point x="60" y="0" type="line"/>
      <point x="81" y="-2"/>
      <point x="120" y="-8"/>
      <point x="169" y="-8" type="curve" smooth="yes"/>
      <point x="242" y="-8"/>
      <point x="296" y="24"/>
      <point x="341" y="106" type="curve" smooth="yes"/>
      <point x="424" y="259"/>
      <point x="468" y="564"/>
      <point x="468" y="1033" type="curve" smooth="yes"/>
      <point x="468" y="1229" type="line"/>
      <point x="787" y="1229" type="line"/>
      <point x="786" y="68" type="line"/>
      <point x="628" y="52" type="line"/>
      <point x="628" y="0" type="line"/>
      <point x="964" y="0" type="line"/>
      <point x="967" y="9"/>
      <point x="982" y="-261"/>
      <point x="982" y="-292" type="curve"/>
      <point x="1077" y="-292" type="line"/>
      <point x="1079" y="-301"/>
      <point x="1117" y="116"/>
    </contour>
  </outline>
</glyph>
<glyph name="elhook-cy.sc" format="1">
  <advance width="1154"/>
  <outline>
    <contour>
      <point x="936" y="478" type="curve" smooth="yes"/>
      <point x="936" y="1228" type="line"/>
      <point x="1081" y="1242" type="line"/>
      <point x="1081" y="1292" type="line"/>
      <point x="201" y="1292" type="line"/>
      <point x="201" y="1242" type="line"/>
      <point x="376" y="1228" type="line"/>
      <point x="376" y="1027" type="line" smooth="yes"/>
      <point x="376" y="584"/>
      <point x="332" y="297"/>
      <point x="256" y="166" type="curve"/>
      <point x="232" y="130"/>
      <point x="205" y="106"/>
      <point x="166" y="106" type="curve" smooth="yes"/>
      <point x="105" y="106"/>
      <point x="71" y="111"/>
      <point x="50" y="115" type="curve"/>
      <point x="60" y="0" type="line"/>
      <point x="81" y="-2"/>
      <point x="120" y="-8"/>
      <point x="169" y="-8" type="curve" smooth="yes"/>
      <point x="242" y="-8"/>
      <point x="296" y="24"/>
      <point x="341" y="106" type="curve" smooth="yes"/>
      <point x="424" y="259"/>
      <point x="468" y="564"/>
      <point x="468" y="1033" type="curve" smooth="yes"/>
      <point x="468" y="1229" type="line"/>
      <point x="787" y="1229" type="line"/>
      <point x="784" y="500" type="line" smooth="yes"/>
      <point x="783" y="201"/>
      <point x="780" y="103"/>
      <point x="752" y="-16" type="curve" smooth="yes"/>
      <point x="717" y="-130"/>
      <point x="637" y="-212"/>
      <point x="550" y="-240" type="curve"/>
      <point x="589" y="-281" type="line"/>
      <point x="732" y="-262"/>
      <point x="880" y="-176"/>
      <point x="919" y="41" type="curve"/>
      <point x="933" y="140"/>
      <point x="936" y="286"/>
    </contour>
  </outline>
</glyph>
<glyph name="eltail-cy.sc" format="1">
  <advance width="1172"/>
  <outline>
    <contour>
      <point x="466" y="-144" type="move" name="mark0"/>
    </contour>
    <contour>
      <point x="1114" y="0" type="curve"/>
      <point x="1114" y="67" type="line"/>
      <point x="936" y="67" type="line"/>
      <point x="936" y="1228" type="line"/>
      <point x="1081" y="1242" type="line"/>
      <point x="1081" y="1292" type="line"/>
      <point x="201" y="1292" type="line"/>
      <point x="201" y="1242" type="line"/>
      <point x="376" y="1228" type="line"/>
      <point x="376" y="1027" type="line" smooth="yes"/>
      <point x="376" y="587"/>
      <point x="332" y="296"/>
      <point x="256" y="166" type="curve"/>
      <point x="232" y="125"/>
      <point x="202" y="107"/>
      <point x="166" y="107" type="curve" smooth="yes"/>
      <point x="102" y="107"/>
      <point x="70" y="111"/>
      <point x="50" y="117" type="curve"/>
      <point x="60" y="0" type="line"/>
      <point x="81" y="-2"/>
      <point x="120" y="-8"/>
      <point x="169" y="-8" type="curve" smooth="yes"/>
      <point x="242" y="-8"/>
      <point x="296" y="24"/>
      <point x="339" y="103" type="curve" smooth="yes"/>
      <point x="426" y="268"/>
      <point x="468" y="572"/>
      <point x="468" y="1033" type="curve" smooth="yes"/>
      <point x="468" y="1229" type="line"/>
      <point x="787" y="1229" type="line"/>
      <point x="788" y="68" type="line"/>
      <point x="628" y="52" type="line"/>
      <point x="628" y="0" type="line"/>
      <point x="983" y="0" type="line"/>
      <point x="979" y="5"/>
      <point x="920" y="-331"/>
      <point x="913" y="-290" type="curve"/>
      <point x="1012" y="-290" type="line"/>
      <point x="1018" y="-304"/>
      <point x="1106" y="43"/>
    </contour>
  </outline>
</glyph>
<glyph name="emtail-cy.sc" format="1">
  <advance width="1574"/>
  <outline>
    <contour>
      <point x="744" y="-144" type="move" name="mark0"/>
    </contour>
    <contour>
      <point x="1582" y="0" type="curve"/>
      <point x="1582" y="71" type="line"/>
      <point x="1423" y="71" type="line"/>
      <point x="1283" y="1228" type="line"/>
      <point x="1440" y="1242" type="line"/>
      <point x="1440" y="1292" type="line"/>
      <point x="1070" y="1292" type="line"/>
      <point x="836" y="365" type="line"/>
      <point x="792" y="115" type="line"/>
      <point x="744" y="365" type="line"/>
      <point x="493" y="1292" type="line"/>
      <point x="109" y="1292" type="line"/>
      <point x="109" y="1242" type="line"/>
      <point x="274" y="1228" type="line"/>
      <point x="149" y="68" type="line"/>
      <point x="16" y="52" type="line"/>
      <point x="16" y="0" type="line"/>
      <point x="417" y="0" type="line"/>
      <point x="417" y="52" type="line"/>
      <point x="267" y="68" type="line"/>
      <point x="336" y="884" type="line"/>
      <point x="364" y="1254" type="line"/>
      <point x="454" y="898" type="line"/>
      <point x="729" y="-14" type="line"/>
      <point x="815" y="-14" type="line"/>
      <point x="1090" y="1039" type="line"/>
      <point x="1143" y="1258" type="line"/>
      <point x="1182" y="884" type="line"/>
      <point x="1263" y="68" type="line"/>
      <point x="1126" y="52" type="line"/>
      <point x="1126" y="0" type="line"/>
      <point x="1453" y="0" type="line"/>
      <point x="1447" y="19"/>
      <point x="1389" y="-320"/>
      <point x="1383" y="-290" type="curve"/>
      <point x="1480" y="-290" type="line"/>
      <point x="1490" y="-297"/>
      <point x="1570" y="48"/>
    </contour>
  </outline>
</glyph>
<glyph name="endescender-cy.sc" format="1">
  <advance width="1306"/>
  <outline>
    <contour>
      <point x="641" y="-144" type="move" name="mark0"/>
    </contour>
    <contour>
      <point x="1243" y="68" type="curve"/>
      <point x="1085" y="68" type="line"/>
      <point x="1085" y="1227" type="line"/>
      <point x="1211" y="1242" type="line"/>
      <point x="1211" y="1292" type="line"/>
      <point x="806" y="1292" type="line"/>
      <point x="806" y="1242" type="line"/>
      <point x="933" y="1228" type="line"/>
      <point x="933" y="699" type="line"/>
      <point x="372" y="699" type="line"/>
      <point x="372" y="1227" type="line"/>
      <point x="505" y="1242" type="line"/>
      <point x="505" y="1292" type="line"/>
      <point x="97" y="1292" type="line"/>
      <point x="97" y="1242" type="line"/>
      <point x="220" y="1227" type="line"/>
      <point x="220" y="66" type="line"/>
      <point x="92" y="52" type="line"/>
      <point x="92" y="0" type="line"/>
      <point x="506" y="0" type="line"/>
      <point x="506" y="52" type="line"/>
      <point x="372" y="66" type="line"/>
      <point x="372" y="635" type="line"/>
      <point x="933" y="635" type="line"/>
      <point x="933" y="68" type="line"/>
      <point x="804" y="52" type="line"/>
      <point x="804" y="0" type="line"/>
      <point x="1088" y="0" type="line"/>
      <point x="1093" y="0"/>
      <point x="1107" y="-273"/>
      <point x="1108" y="-292" type="curve"/>
      <point x="1203" y="-292" type="line"/>
      <point x="1205" y="-295"/>
      <point x="1243" y="127"/>
    </contour>
  </outline>
</glyph>
<glyph name="enghe-cy.sc" format="1">
  <advance width="1571"/>
  <outline>
    <contour>
      <point x="94" y="1292" type="line"/>
      <point x="94" y="1242" type="line"/>
      <point x="223" y="1227" type="line"/>
      <point x="223" y="66" type="line"/>
      <point x="89" y="52" type="line"/>
      <point x="89" y="0" type="line"/>
      <point x="516" y="0" type="line"/>
      <point x="516" y="52" type="line"/>
      <point x="374" y="68" type="line"/>
      <point x="374" y="635" type="line"/>
      <point x="936" y="635" type="line"/>
      <point x="936" y="68" type="line"/>
      <point x="801" y="52" type="line"/>
      <point x="801" y="0" type="line"/>
      <point x="1218" y="0" type="line"/>
      <point x="1218" y="52" type="line"/>
      <point x="1088" y="68" type="line"/>
      <point x="1088" y="1242" type="line"/>
      <point x="1355" y="1222" type="line"/>
      <point x="1398" y="928" type="line"/>
      <point x="1502" y="928" type="line"/>
      <point x="1484" y="1292" type="line"/>
      <point x="800" y="1292" type="line"/>
      <point x="800" y="1242" type="line"/>
      <point x="936" y="1228" type="line"/>
      <point x="936" y="699" type="line"/>
      <point x="374" y="699" type="line"/>
      <point x="374" y="1228" type="line"/>
      <point x="516" y="1242" type="line"/>
      <point x="516" y="1292" type="line"/>
    </contour>
  </outline>
</glyph>
<glyph name="enhook-cy.sc" format="1">
  <advance width="1298"/>
  <outline>
    <contour>
      <point x="648" y="-144" type="move" name="mark0"/>
    </contour>
    <contour>
      <point x="1085" y="431" type="curve" smooth="yes"/>
      <point x="1085" y="1228" type="line"/>
      <point x="1216" y="1242" type="line"/>
      <point x="1216" y="1292" type="line"/>
      <point x="806" y="1292" type="line"/>
      <point x="806" y="1242" type="line"/>
      <point x="933" y="1228" type="line"/>
      <point x="933" y="699" type="line"/>
      <point x="372" y="699" type="line"/>
      <point x="372" y="1227" type="line"/>
      <point x="505" y="1242" type="line"/>
      <point x="505" y="1292" type="line"/>
      <point x="97" y="1292" type="line"/>
      <point x="97" y="1242" type="line"/>
      <point x="220" y="1227" type="line"/>
      <point x="220" y="66" type="line"/>
      <point x="92" y="52" type="line"/>
      <point x="92" y="0" type="line"/>
      <point x="506" y="0" type="line"/>
      <point x="506" y="52" type="line"/>
      <point x="372" y="66" type="line"/>
      <point x="372" y="635" type="line"/>
      <point x="932" y="635" type="line"/>
      <point x="932" y="452" type="line" smooth="yes"/>
      <point x="932" y="122"/>
      <point x="930" y="15"/>
      <point x="900" y="-82" type="curve"/>
      <point x="864" y="-149"/>
      <point x="786" y="-208"/>
      <point x="697" y="-225" type="curve"/>
      <point x="733" y="-273" type="line"/>
      <point x="875" y="-267"/>
      <point x="1028" y="-205"/>
      <point x="1068" y="-37" type="curve"/>
      <point x="1086" y="100"/>
      <point x="1085" y="225"/>
    </contour>
  </outline>
</glyph>
<glyph name="enlefthook-cy.sc" format="1">
  <advance width="1289"/>
  <outline>
    <contour>
      <point x="392" y="478" type="curve" smooth="yes"/>
      <point x="392" y="635" type="line"/>
      <point x="937" y="635" type="line"/>
      <point x="937" y="69" type="line"/>
      <point x="806" y="52" type="line"/>
      <point x="806" y="0" type="line"/>
      <point x="1214" y="0" type="line"/>
      <point x="1214" y="52" type="line"/>
      <point x="1088" y="67" type="line"/>
      <point x="1088" y="1227" type="line"/>
      <point x="1208" y="1242" type="line"/>
      <point x="1208" y="1292" type="line"/>
      <point x="808" y="1292" type="line"/>
      <point x="808" y="1242" type="line"/>
      <point x="937" y="1229" type="line"/>
      <point x="937" y="698" type="line"/>
      <point x="392" y="698" type="line"/>
      <point x="392" y="1227" type="line"/>
      <point x="524" y="1242" type="line"/>
      <point x="524" y="1292" type="line"/>
      <point x="116" y="1292" type="line"/>
      <point x="116" y="1242" type="line"/>
      <point x="240" y="1227" type="line"/>
      <point x="240" y="500" type="line" smooth="yes"/>
      <point x="240" y="232"/>
      <point x="238" y="115"/>
      <point x="209" y="-20" type="curve" smooth="yes"/>
      <point x="176" y="-128"/>
      <point x="94" y="-212"/>
      <point x="6" y="-240" type="curve"/>
      <point x="45" y="-281" type="line"/>
      <point x="194" y="-259"/>
      <point x="335" y="-166"/>
      <point x="376" y="43" type="curve"/>
      <point x="391" y="160"/>
      <point x="392" y="280"/>
    </contour>
  </outline>
</glyph>
<glyph name="entail-cy.sc" format="1">
  <advance width="1303"/>
  <outline>
    <contour>
      <point x="1237" y="0" type="curve"/>
      <point x="1237" y="64" type="line"/>
      <point x="1086" y="64" type="line"/>
      <point x="1086" y="1227" type="line"/>
      <point x="1211" y="1242" type="line"/>
      <point x="1211" y="1292" type="line"/>
      <point x="806" y="1292" type="line"/>
      <point x="806" y="1242" type="line"/>
      <point x="933" y="1228" type="line"/>
      <point x="933" y="699" type="line"/>
      <point x="372" y="699" type="line"/>
      <point x="372" y="1228" type="line"/>
      <point x="505" y="1242" type="line"/>
      <point x="505" y="1292" type="line"/>
      <point x="96" y="1292" type="line"/>
      <point x="96" y="1242" type="line"/>
      <point x="220" y="1228" type="line"/>
      <point x="220" y="66" type="line"/>
      <point x="92" y="51" type="line"/>
      <point x="92" y="0" type="line"/>
      <point x="507" y="0" type="line"/>
      <point x="507" y="51" type="line"/>
      <point x="372" y="68" type="line"/>
      <point x="372" y="635" type="line"/>
      <point x="933" y="635" type="line"/>
      <point x="933" y="68" type="line"/>
      <point x="804" y="51" type="line"/>
      <point x="804" y="0" type="line"/>
      <point x="1107" y="0" type="line"/>
      <point x="1083" y="-117"/>
      <point x="1056" y="-193"/>
      <point x="1030" y="-294" type="curve"/>
      <point x="1130" y="-294" type="line"/>
      <point x="1137" y="-309"/>
      <point x="1228" y="29"/>
    </contour>
  </outline>
</glyph>
<glyph name="ereversed-cy.sc" format="1">
  <advance width="1088"/>
  <outline>
    <contour>
      <point x="568" y="1263" type="move" name="top"/>
    </contour>
    <contour>
      <point x="146" y="1240" type="curve"/>
      <point x="143" y="1003" type="line"/>
      <point x="247" y="1000" type="line"/>
      <point x="287" y="1141" type="line"/>
      <point x="324" y="1184"/>
      <point x="373" y="1242"/>
      <point x="496" y="1242" type="curve" smooth="yes"/>
      <point x="719" y="1242"/>
      <point x="824" y="973"/>
      <point x="844" y="696" type="curve"/>
      <point x="332" y="714" type="line"/>
      <point x="332" y="612" type="line"/>
      <point x="847" y="628" type="line"/>
      <point x="844" y="279"/>
      <point x="701" y="53"/>
      <point x="505" y="53" type="curve" smooth="yes"/>
      <point x="380" y="53"/>
      <point x="320" y="106"/>
      <point x="285" y="138" type="curve"/>
      <point x="222" y="262" type="line"/>
      <point x="125" y="235" type="line"/>
      <point x="156" y="51" type="line"/>
      <point x="237" y="52"/>
      <point x="315" y="-20"/>
      <point x="481" y="-20" type="curve" smooth="yes"/>
      <point x="804" y="-20"/>
      <point x="1023" y="258"/>
      <point x="1023" y="626" type="curve" smooth="yes"/>
      <point x="1023" y="1028"/>
      <point x="836" y="1306"/>
      <point x="504" y="1306" type="curve" smooth="yes"/>
      <point x="305" y="1306"/>
      <point x="231" y="1243"/>
    </contour>
  </outline>
</glyph>
<glyph name="ertick-cy.sc" format="1">
  <advance width="1026"/>
  <outline>
    <contour>
      <point x="526" y="-144" type="move" name="mark0"/>
    </contour>
    <contour>
      <point x="298" y="1292" type="curve" smooth="yes"/>
      <point x="99" y="1292" type="line"/>
      <point x="99" y="1242" type="line"/>
      <point x="220" y="1228" type="line"/>
      <point x="220" y="66" type="line"/>
      <point x="90" y="52" type="line"/>
      <point x="90" y="0" type="line"/>
      <point x="585" y="0" type="line"/>
      <point x="585" y="52" type="line"/>
      <point x="372" y="69" type="line"/>
      <point x="372" y="529" type="line"/>
      <point x="387" y="524"/>
      <point x="473" y="520"/>
      <point x="526" y="520" type="curve" smooth="yes"/>
      <point x="589" y="520"/>
      <point x="646" y="528"/>
      <point x="700" y="543" type="curve"/>
      <point x="845" y="317" type="line"/>
      <point x="907" y="353" type="line"/>
      <point x="775" y="571" type="line"/>
      <point x="891" y="635"/>
      <point x="972" y="765"/>
      <point x="972" y="953" type="curve" smooth="yes"/>
      <point x="972" y="1170"/>
      <point x="874" y="1306"/>
      <point x="565" y="1306" type="curve" smooth="yes"/>
      <point x="434" y="1305"/>
      <point x="393" y="1292"/>
    </contour>
    <contour>
      <point x="703" y="600" type="curve"/>
      <point x="592" y="781" type="line"/>
      <point x="528" y="744" type="line"/>
      <point x="637" y="590" type="line"/>
      <point x="599" y="588"/>
      <point x="562" y="588"/>
      <point x="528" y="588" type="curve" smooth="yes"/>
      <point x="463" y="588"/>
      <point x="402" y="588"/>
      <point x="372" y="595" type="curve"/>
      <point x="372" y="1230" type="line"/>
      <point x="412" y="1227"/>
      <point x="457" y="1240"/>
      <point x="529" y="1240" type="curve" smooth="yes"/>
      <point x="719" y="1240"/>
      <point x="812" y="1170"/>
      <point x="812" y="955" type="curve" smooth="yes"/>
      <point x="812" y="761"/>
      <point x="768" y="652"/>
    </contour>
  </outline>
</glyph>
<glyph name="esdescender-cy.sc" format="1">
  <advance width="1033"/>
  <outline>
    <contour>
      <point x="927" y="46" type="curve"/>
      <point x="963" y="253" type="line"/>
      <point x="874" y="262" type="line"/>
      <point x="810" y="113" type="line"/>
      <point x="773" y="71"/>
      <point x="724" y="41"/>
      <point x="602" y="41" type="curve" smooth="yes"/>
      <point x="354" y="41"/>
      <point x="239" y="364"/>
      <point x="239" y="672" type="curve" smooth="yes"/>
      <point x="239" y="1030"/>
      <point x="393" y="1246"/>
      <point x="593" y="1246" type="curve" smooth="yes"/>
      <point x="705" y="1246"/>
      <point x="780" y="1216"/>
      <point x="806" y="1185" type="curve"/>
      <point x="844" y="1019" type="line"/>
      <point x="939" y="1019" type="line"/>
      <point x="953" y="1246" type="line"/>
      <point x="897" y="1264"/>
      <point x="759" y="1306"/>
      <point x="620" y="1306" type="curve" smooth="yes"/>
      <point x="306" y="1306"/>
      <point x="66" y="1031"/>
      <point x="66" y="663" type="curve" smooth="yes"/>
      <point x="66" y="292"/>
      <point x="217" y="18"/>
      <point x="513" y="-18" type="curve"/>
      <point x="519" y="-80"/>
      <point x="541" y="-328"/>
      <point x="541" y="-290" type="curve"/>
      <point x="643" y="-290" type="line"/>
      <point x="663" y="77"/>
      <point x="660" y="-153"/>
      <point x="669" y="-18" type="curve"/>
      <point x="802" y="-10"/>
      <point x="854" y="44"/>
    </contour>
  </outline>
</glyph>
<glyph name="fita-cy.sc" format="1">
  <advance width="1142"/>
  <outline>
    <contour>
      <point x="561" y="-20" type="curve" smooth="yes"/>
      <point x="853" y="-12"/>
      <point x="1076" y="243"/>
      <point x="1076" y="653" type="curve" smooth="yes"/>
      <point x="1076" y="1046"/>
      <point x="909" y="1307"/>
      <point x="585" y="1306" type="curve" smooth="yes"/>
      <point x="292" y="1306"/>
      <point x="68" y="1046"/>
      <point x="68" y="633" type="curve" smooth="yes"/>
      <point x="68" y="247"/>
      <point x="238" y="-28"/>
    </contour>
    <contour>
      <point x="569" y="44" type="curve" smooth="yes"/>
      <point x="377" y="44"/>
      <point x="255" y="271"/>
      <point x="237" y="543" type="curve"/>
      <point x="272" y="586"/>
      <point x="329" y="678"/>
      <point x="403" y="678" type="curve" smooth="yes"/>
      <point x="486" y="678"/>
      <point x="589" y="550"/>
      <point x="709" y="550" type="curve" smooth="yes"/>
      <point x="797" y="550"/>
      <point x="862" y="630"/>
      <point x="904" y="708" type="curve"/>
      <point x="902" y="290"/>
      <point x="781" y="44"/>
    </contour>
    <contour>
      <point x="236" y="608" type="curve"/>
      <point x="240" y="1033"/>
      <point x="377" y="1241"/>
      <point x="573" y="1241" type="curve" smooth="yes"/>
      <point x="761" y="1241"/>
      <point x="879" y="1023"/>
      <point x="900" y="773" type="curve"/>
      <point x="867" y="730"/>
      <point x="810" y="636"/>
      <point x="736" y="636" type="curve" smooth="yes"/>
      <point x="645" y="636"/>
      <point x="547" y="763"/>
      <point x="428" y="763" type="curve" smooth="yes"/>
      <point x="345" y="763"/>
      <point x="282" y="690"/>
    </contour>
  </outline>
</glyph>
<glyph name="ge-cy.sc" format="1">
  <advance width="911"/>
  <outline>
    <contour>
      <point x="560" y="1263" type="move" name="top"/>
    </contour>
    <contour>
      <point x="457" y="648" type="move" name="center"/>
    </contour>
    <contour>
      <point x="258" y="0" type="move" name="bottomright"/>
    </contour>
    <contour>
      <point x="62" y="1292" type="line"/>
      <point x="62" y="1244" type="line"/>
      <point x="227" y="1225" type="line"/>
      <point x="227" y="68" type="line"/>
      <point x="56" y="51" type="line"/>
      <point x="56" y="0" type="line"/>
      <point x="654" y="0" type="line"/>
      <point x="654" y="51" type="line"/>
      <point x="382" y="68" type="line"/>
      <point x="382" y="1240" type="line"/>
      <point x="734" y="1235" type="line"/>
      <point x="776" y="895" type="line"/>
      <point x="874" y="895" type="line"/>
      <point x="865" y="1292" type="line"/>
    </contour>
  </outline>
</glyph>
<glyph name="gedescender-cy.sc" format="1">
  <advance width="905"/>
  <outline>
    <contour>
      <point x="509" y="-144" type="move" name="mark0"/>
    </contour>
    <contour>
      <point x="692" y="68" type="curve"/>
      <point x="382" y="68" type="line"/>
      <point x="382" y="1240" type="line"/>
      <point x="734" y="1235" type="line"/>
      <point x="777" y="895" type="line"/>
      <point x="874" y="895" type="line"/>
      <point x="865" y="1292" type="line"/>
      <point x="62" y="1292" type="line"/>
      <point x="62" y="1244" type="line"/>
      <point x="227" y="1225" type="line"/>
      <point x="227" y="68" type="line"/>
      <point x="56" y="51" type="line"/>
      <point x="56" y="0" type="line"/>
      <point x="538" y="0" type="line"/>
      <point x="544" y="1"/>
      <point x="557" y="-259"/>
      <point x="557" y="-292" type="curve"/>
      <point x="650" y="-292" type="line"/>
      <point x="652" y="-302"/>
      <point x="692" y="111"/>
    </contour>
  </outline>
</glyph>
<glyph name="gestrokehook-cy.sc" format="1">
  <advance width="920"/>
  <outline>
    <contour>
      <point x="651" y="51" type="curve"/>
      <point x="382" y="68" type="line"/>
      <point x="382" y="618" type="line"/>
      <point x="669" y="618" type="line"/>
      <point x="669" y="677" type="line"/>
      <point x="382" y="677" type="line"/>
      <point x="382" y="1240" type="line"/>
      <point x="734" y="1235" type="line"/>
      <point x="776" y="895" type="line"/>
      <point x="874" y="895" type="line"/>
      <point x="865" y="1292" type="line"/>
      <point x="62" y="1292" type="line"/>
      <point x="62" y="1244" type="line"/>
      <point x="227" y="1225" type="line"/>
      <point x="227" y="677" type="line"/>
      <point x="80" y="677" type="line"/>
      <point x="80" y="618" type="line"/>
      <point x="227" y="618" type="line"/>
      <point x="227" y="68" type="line"/>
      <point x="56" y="51" type="line"/>
      <point x="56" y="0" type="line"/>
      <point x="597" y="0" type="line"/>
      <point x="613" y="-67"/>
      <point x="624" y="-128"/>
      <point x="624" y="-165" type="curve" smooth="yes"/>
      <point x="624" y="-270"/>
      <point x="583" y="-312"/>
      <point x="508" y="-312" type="curve" smooth="yes"/>
      <point x="497" y="-312"/>
      <point x="463" y="-308"/>
      <point x="438" y="-296" type="curve"/>
      <point x="437" y="-368" type="line"/>
      <point x="465" y="-379"/>
      <point x="511" y="-388"/>
      <point x="546" y="-388" type="curve" smooth="yes"/>
      <point x="665" y="-388"/>
      <point x="743" y="-319"/>
      <point x="743" y="-235" type="curve" smooth="yes"/>
      <point x="743" y="-130"/>
      <point x="693" y="-10"/>
    </contour>
  </outline>
</glyph>
<glyph name="ghemiddlehook-cy.sc" format="1">
  <advance width="1082"/>
  <outline>
    <contour>
      <point x="414" y="667" type="curve"/>
      <point x="414" y="1240" type="line"/>
      <point x="767" y="1227" type="line"/>
      <point x="808" y="971" type="line"/>
      <point x="906" y="971" type="line"/>
      <point x="897" y="1292" type="line"/>
      <point x="95" y="1292" type="line"/>
      <point x="95" y="1244" type="line"/>
      <point x="259" y="1225" type="line"/>
      <point x="259" y="68" type="line"/>
      <point x="89" y="52" type="line"/>
      <point x="89" y="0" type="line"/>
      <point x="604" y="0" type="line"/>
      <point x="604" y="52" type="line"/>
      <point x="414" y="68" type="line"/>
      <point x="414" y="618" type="line"/>
      <point x="488" y="661"/>
      <point x="558" y="670"/>
      <point x="640" y="670" type="curve" smooth="yes"/>
      <point x="811" y="670"/>
      <point x="866" y="539"/>
      <point x="866" y="311" type="curve" smooth="yes"/>
      <point x="866" y="-62"/>
      <point x="801" y="-269"/>
      <point x="639" y="-269" type="curve" smooth="yes"/>
      <point x="602" y="-269"/>
      <point x="577" y="-271"/>
      <point x="563" y="-272" type="curve"/>
      <point x="566" y="-331" type="line"/>
      <point x="586" y="-340"/>
      <point x="629" y="-337"/>
      <point x="661" y="-337" type="curve" smooth="yes"/>
      <point x="894" y="-337"/>
      <point x="1021" y="-34"/>
      <point x="1021" y="309" type="curve" smooth="yes"/>
      <point x="1021" y="509"/>
      <point x="954" y="737"/>
      <point x="675" y="737" type="curve" smooth="yes"/>
      <point x="612" y="737"/>
      <point x="474" y="721"/>
    </contour>
  </outline>
</glyph>
<glyph name="ghestroke-cy.sc" format="1">
  <advance width="920"/>
  <outline>
    <contour>
      <point x="62" y="1292" type="line"/>
      <point x="62" y="1244" type="line"/>
      <point x="227" y="1225" type="line"/>
      <point x="227" y="677" type="line"/>
      <point x="80" y="677" type="line"/>
      <point x="80" y="618" type="line"/>
      <point x="227" y="618" type="line"/>
      <point x="227" y="68" type="line"/>
      <point x="56" y="51" type="line"/>
      <point x="56" y="0" type="line"/>
      <point x="654" y="0" type="line"/>
      <point x="654" y="51" type="line"/>
      <point x="382" y="68" type="line"/>
      <point x="382" y="618" type="line"/>
      <point x="669" y="618" type="line"/>
      <point x="669" y="677" type="line"/>
      <point x="382" y="677" type="line"/>
      <point x="382" y="1240" type="line"/>
      <point x="734" y="1235" type="line"/>
      <point x="776" y="895" type="line"/>
      <point x="874" y="895" type="line"/>
      <point x="865" y="1292" type="line"/>
    </contour>
  </outline>
</glyph>
<glyph name="gheupturn-cy.sc" format="1">
  <advance width="908"/>
  <outline>
    <contour>
      <point x="522" y="-144" type="move" name="mark0"/>
    </contour>
    <contour>
      <point x="768" y="1598" type="line"/>
      <point x="724" y="1292" type="line"/>
      <point x="75" y="1292" type="line"/>
      <point x="75" y="1245" type="line"/>
      <point x="244" y="1224" type="line"/>
      <point x="244" y="69" type="line"/>
      <point x="72" y="51" type="line"/>
      <point x="72" y="0" type="line"/>
      <point x="669" y="0" type="line"/>
      <point x="669" y="51" type="line"/>
      <point x="399" y="69" type="line"/>
      <point x="399" y="1241" type="line"/>
      <point x="852" y="1237" type="line"/>
      <point x="867" y="1598" type="line"/>
    </contour>
  </outline>
</glyph>
<glyph name="haabkhasian-cy.sc" format="1">
  <advance width="1319"/>
  <outline>
    <contour>
      <point x="676" y="1229" type="curve"/>
      <point x="689" y="1301" type="line"/>
      <point x="663" y="1305"/>
      <point x="615" y="1306"/>
      <point x="585" y="1306" type="curve" smooth="yes"/>
      <point x="321" y="1306"/>
      <point x="67" y="1076"/>
      <point x="67" y="634" type="curve" smooth="yes"/>
      <point x="67" y="264"/>
      <point x="242" y="-20"/>
      <point x="588" y="-20" type="curve" smooth="yes"/>
      <point x="670" y="-20"/>
      <point x="753" y="3"/>
      <point x="819" y="52" type="curve"/>
      <point x="888" y="16"/>
      <point x="975" y="-20"/>
      <point x="1078" y="-20" type="curve" smooth="yes"/>
      <point x="1157" y="-20"/>
      <point x="1230" y="3"/>
      <point x="1289" y="50" type="curve"/>
      <point x="1257" y="85" type="line"/>
      <point x="1216" y="53"/>
      <point x="1158" y="44"/>
      <point x="1105" y="44" type="curve" smooth="yes"/>
      <point x="1038" y="44"/>
      <point x="974" y="65"/>
      <point x="928" y="99" type="curve"/>
      <point x="1020" y="156"/>
      <point x="1172" y="348"/>
      <point x="1172" y="602" type="curve" smooth="yes"/>
      <point x="1172" y="953"/>
      <point x="1007" y="1054"/>
      <point x="842" y="1054" type="curve" smooth="yes"/>
      <point x="677" y="1054"/>
      <point x="513" y="938"/>
      <point x="513" y="591" type="curve" smooth="yes"/>
      <point x="513" y="385"/>
      <point x="625" y="151"/>
      <point x="744" y="83" type="curve"/>
      <point x="677" y="42"/>
      <point x="638" y="44"/>
      <point x="608" y="44" type="curve" smooth="yes"/>
      <point x="413" y="44"/>
      <point x="234" y="271"/>
      <point x="234" y="636" type="curve" smooth="yes"/>
      <point x="234" y="1059"/>
      <point x="401" y="1244"/>
      <point x="586" y="1244" type="curve" smooth="yes"/>
      <point x="614" y="1244"/>
      <point x="647" y="1240"/>
    </contour>
    <contour>
      <point x="841" y="1008" type="curve" smooth="yes"/>
      <point x="960" y="1008"/>
      <point x="1011" y="857"/>
      <point x="1011" y="600" type="curve" smooth="yes"/>
      <point x="1011" y="370"/>
      <point x="944" y="199"/>
      <point x="854" y="122" type="curve"/>
      <point x="753" y="208"/>
      <point x="668" y="394"/>
      <point x="668" y="576" type="curve" smooth="yes"/>
      <point x="668" y="887"/>
      <point x="734" y="1008"/>
    </contour>
  </outline>
</glyph>
<glyph name="hadescender-cy.sc" format="1">
  <advance width="1130"/>
  <outline>
    <contour>
      <point x="565" y="-144" type="move" name="mark0"/>
    </contour>
    <contour>
      <point x="1144" y="68" type="curve"/>
      <point x="990" y="68" type="line"/>
      <point x="643" y="659" type="line"/>
      <point x="959" y="1225" type="line"/>
      <point x="1082" y="1242" type="line"/>
      <point x="1082" y="1292" type="line"/>
      <point x="707" y="1292" type="line"/>
      <point x="707" y="1242" type="line"/>
      <point x="844" y="1228" type="line"/>
      <point x="597" y="700" type="line"/>
      <point x="349" y="1226" type="line"/>
      <point x="500" y="1242" type="line"/>
      <point x="500" y="1292" type="line"/>
      <point x="49" y="1292" type="line"/>
      <point x="49" y="1242" type="line"/>
      <point x="164" y="1225" type="line"/>
      <point x="488" y="673" type="line"/>
      <point x="157" y="66" type="line"/>
      <point x="24" y="52" type="line"/>
      <point x="24" y="0" type="line"/>
      <point x="435" y="0" type="line"/>
      <point x="435" y="52" type="line"/>
      <point x="279" y="66" type="line"/>
      <point x="537" y="631" type="line"/>
      <point x="805" y="68" type="line"/>
      <point x="660" y="52" type="line"/>
      <point x="660" y="0" type="line"/>
      <point x="990" y="0" type="line"/>
      <point x="994" y="12"/>
      <point x="1008" y="-247"/>
      <point x="1009" y="-284" type="curve"/>
      <point x="1102" y="-284" type="line"/>
      <point x="1106" y="-284"/>
      <point x="1144" y="126"/>
    </contour>
  </outline>
</glyph>
<glyph name="hardsign-cy.sc" format="1">
  <advance width="1292"/>
  <outline>
    <contour>
      <point x="593" y="-144" type="move" name="mark0"/>
    </contour>
    <contour>
      <point x="840" y="799" type="curve" smooth="yes"/>
      <point x="640" y="799" type="line"/>
      <point x="640" y="1228" type="line"/>
      <point x="786" y="1241" type="line"/>
      <point x="786" y="1292" type="line"/>
      <point x="90" y="1292" type="line"/>
      <point x="70" y="934" type="line"/>
      <point x="170" y="934" type="line"/>
      <point x="214" y="1227" type="line"/>
      <point x="485" y="1240" type="line"/>
      <point x="485" y="68" type="line"/>
      <point x="279" y="51" type="line"/>
      <point x="279" y="0" type="line"/>
      <point x="569" y="0" type="line" smooth="yes"/>
      <point x="633" y="0"/>
      <point x="786" y="-14"/>
      <point x="823" y="-14" type="curve" smooth="yes"/>
      <point x="1066" y="-14"/>
      <point x="1230" y="126"/>
      <point x="1230" y="411" type="curve" smooth="yes"/>
      <point x="1230" y="655"/>
      <point x="1096" y="799"/>
    </contour>
    <contour>
      <point x="640" y="61" type="curve"/>
      <point x="640" y="730" type="line"/>
      <point x="801" y="730" type="line" smooth="yes"/>
      <point x="970" y="730"/>
      <point x="1071" y="608"/>
      <point x="1071" y="407" type="curve" smooth="yes"/>
      <point x="1071" y="156"/>
      <point x="975" y="44"/>
      <point x="798" y="44" type="curve" smooth="yes"/>
      <point x="712" y="44"/>
      <point x="677" y="54"/>
    </contour>
  </outline>
</glyph>
<glyph name="hastroke-cy.sc" format="1">
  <advance width="1127"/>
  <outline>
    <contour>
      <point x="907" y="699" type="line"/>
      <point x="238" y="699" type="line"/>
      <point x="238" y="642" type="line"/>
      <point x="907" y="642" type="line"/>
    </contour>
    <contour>
      <point x="157" y="66" type="line"/>
      <point x="24" y="52" type="line"/>
      <point x="24" y="0" type="line"/>
      <point x="434" y="0" type="line"/>
      <point x="434" y="52" type="line"/>
      <point x="278" y="66" type="line"/>
      <point x="537" y="631" type="line"/>
      <point x="805" y="68" type="line"/>
      <point x="659" y="52" type="line"/>
      <point x="659" y="0" type="line"/>
      <point x="1109" y="0" type="line"/>
      <point x="1109" y="52" type="line"/>
      <point x="990" y="68" type="line"/>
      <point x="642" y="659" type="line"/>
      <point x="959" y="1225" type="line"/>
      <point x="1082" y="1242" type="line"/>
      <point x="1082" y="1292" type="line"/>
      <point x="706" y="1292" type="line"/>
      <point x="706" y="1242" type="line"/>
      <point x="844" y="1228" type="line"/>
      <point x="596" y="700" type="line"/>
      <point x="349" y="1226" type="line"/>
      <point x="500" y="1242" type="line"/>
      <point x="500" y="1292" type="line"/>
      <point x="49" y="1292" type="line"/>
      <point x="49" y="1242" type="line"/>
      <point x="164" y="1225" type="line"/>
      <point x="488" y="673" type="line"/>
    </contour>
  </outline>
</glyph>
<glyph name="ia-cy.sc" format="1">
  <advance width="1109"/>
  <outline>
    <contour>
      <point x="737" y="583" type="curve"/>
      <point x="737" y="66" type="line"/>
      <point x="587" y="51" type="line"/>
      <point x="587" y="0" type="line"/>
      <point x="1034" y="0" type="line"/>
      <point x="1034" y="51" type="line"/>
      <point x="889" y="66" type="line"/>
      <point x="889" y="1228" type="line"/>
      <point x="1022" y="1242" type="line"/>
      <point x="1022" y="1292" type="line"/>
      <point x="800" y="1292" type="line" smooth="yes"/>
      <point x="719" y="1292"/>
      <point x="658" y="1308"/>
      <point x="576" y="1308" type="curve" smooth="yes"/>
      <point x="338" y="1308"/>
      <point x="150" y="1281"/>
      <point x="150" y="927" type="curve" smooth="yes"/>
      <point x="150" y="720"/>
      <point x="240" y="617"/>
      <point x="375" y="575" type="curve"/>
      <point x="254" y="495"/>
      <point x="142" y="82"/>
      <point x="66" y="69" type="curve"/>
      <point x="6" y="51" type="line"/>
      <point x="6" y="0" type="line"/>
      <point x="204" y="0" type="line" smooth="yes"/>
      <point x="281" y="0"/>
      <point x="394" y="478"/>
      <point x="504" y="583" type="curve"/>
      <point x="587" y="584"/>
      <point x="663" y="584"/>
    </contour>
    <contour>
      <point x="737" y="1224" type="curve"/>
      <point x="737" y="660" type="line"/>
      <point x="709" y="658"/>
      <point x="648" y="654"/>
      <point x="565" y="654" type="curve" smooth="yes"/>
      <point x="402" y="654"/>
      <point x="308" y="768"/>
      <point x="308" y="954" type="curve" smooth="yes"/>
      <point x="308" y="1185"/>
      <point x="413" y="1239"/>
      <point x="565" y="1239" type="curve" smooth="yes"/>
      <point x="658" y="1239"/>
      <point x="690" y="1225"/>
    </contour>
  </outline>
</glyph>
<glyph name="ii-cy.sc" format="1">
  <advance width="1330"/>
  <outline>
    <contour>
      <point x="680" y="1263" type="move" name="top"/>
    </contour>
    <contour>
      <point x="1138" y="0" type="move" name="bottomright"/>
    </contour>
    <contour>
      <point x="98" y="1292" type="line"/>
      <point x="98" y="1242" type="line"/>
      <point x="221" y="1227" type="line"/>
      <point x="221" y="67" type="line"/>
      <point x="92" y="52" type="line"/>
      <point x="92" y="0" type="line"/>
      <point x="516" y="0" type="line"/>
      <point x="516" y="52" type="line"/>
      <point x="370" y="69" type="line"/>
      <point x="370" y="145" type="line"/>
      <point x="840" y="856" type="line"/>
      <point x="959" y="1074" type="line"/>
      <point x="959" y="68" type="line"/>
      <point x="822" y="52" type="line"/>
      <point x="822" y="0" type="line"/>
      <point x="1241" y="0" type="line"/>
      <point x="1241" y="52" type="line"/>
      <point x="1109" y="68" type="line"/>
      <point x="1109" y="1228" type="line"/>
      <point x="1233" y="1242" type="line"/>
      <point x="1233" y="1292" type="line"/>
      <point x="822" y="1292" type="line"/>
      <point x="822" y="1242" type="line"/>
      <point x="959" y="1228" type="line"/>
      <point x="959" y="1169" type="line"/>
      <point x="504" y="475" type="line"/>
      <point x="370" y="237" type="line"/>
      <point x="370" y="1229" type="line"/>
      <point x="523" y="1244" type="line"/>
      <point x="523" y="1292" type="line"/>
    </contour>
  </outline>
</glyph>
<glyph name="iishorttail-cy.sc" format="1">
  <advance width="1331"/>
  <outline>
    <contour>
      <point x="1112" y="0" type="move" name="bottomright"/>
    </contour>
    <contour>
      <point x="1263" y="0" type="curve"/>
      <point x="1263" y="67" type="line"/>
      <point x="1086" y="67" type="line"/>
      <point x="1074" y="0" type="line"/>
      <point x="1132" y="0" type="line"/>
      <point x="1123" y="-31"/>
      <point x="1070" y="-333"/>
      <point x="1061" y="-290" type="curve"/>
      <point x="1161" y="-290" type="line"/>
      <point x="1170" y="-291"/>
      <point x="1255" y="43"/>
    </contour>
    <contour>
      <point x="486" y="1858" type="curve" smooth="yes"/>
      <point x="379" y="1858" type="line"/>
      <point x="379" y="1850"/>
      <point x="378" y="1842"/>
      <point x="378" y="1837" type="curve" smooth="yes"/>
      <point x="378" y="1633"/>
      <point x="486" y="1477"/>
      <point x="680" y="1477" type="curve" smooth="yes"/>
      <point x="877" y="1477"/>
      <point x="979" y="1630"/>
      <point x="979" y="1837" type="curve" smooth="yes"/>
      <point x="979" y="1845"/>
      <point x="977" y="1846"/>
      <point x="977" y="1858" type="curve"/>
      <point x="871" y="1858" type="line" smooth="yes"/>
      <point x="849" y="1858"/>
      <point x="846" y="1839"/>
      <point x="846" y="1807" type="curve" smooth="yes"/>
      <point x="846" y="1697"/>
      <point x="807" y="1556"/>
      <point x="681" y="1556" type="curve" smooth="yes"/>
      <point x="552" y="1556"/>
      <point x="510" y="1697"/>
      <point x="510" y="1807" type="curve" smooth="yes"/>
      <point x="510" y="1839"/>
      <point x="507" y="1858"/>
    </contour>
    <contour>
      <point x="98" y="1292" type="line"/>
      <point x="98" y="1242" type="line"/>
      <point x="221" y="1227" type="line"/>
      <point x="221" y="67" type="line"/>
      <point x="92" y="52" type="line"/>
      <point x="92" y="0" type="line"/>
      <point x="516" y="0" type="line"/>
      <point x="516" y="52" type="line"/>
      <point x="370" y="69" type="line"/>
      <point x="370" y="145" type="line"/>
      <point x="840" y="856" type="line"/>
      <point x="959" y="1074" type="line"/>
      <point x="959" y="68" type="line"/>
      <point x="822" y="52" type="line"/>
      <point x="822" y="0" type="line"/>
      <point x="1241" y="0" type="line"/>
      <point x="1241" y="52" type="line"/>
      <point x="1109" y="68" type="line"/>
      <point x="1109" y="1228" type="line"/>
      <point x="1233" y="1242" type="line"/>
      <point x="1233" y="1292" type="line"/>
      <point x="822" y="1292" type="line"/>
      <point x="822" y="1242" type="line"/>
      <point x="959" y="1228" type="line"/>
      <point x="959" y="1169" type="line"/>
      <point x="504" y="475" type="line"/>
      <point x="370" y="237" type="line"/>
      <point x="370" y="1229" type="line"/>
      <point x="523" y="1244" type="line"/>
      <point x="523" y="1292" type="line"/>
    </contour>
  </outline>
</glyph>
<glyph name="iu-cy.sc" format="1">
  <advance width="1681"/>
  <outline>
    <contour>
      <point x="629" y="699" type="curve"/>
      <point x="370" y="699" type="line"/>
      <point x="370" y="1228" type="line"/>
      <point x="499" y="1242" type="line"/>
      <point x="499" y="1292" type="line"/>
      <point x="96" y="1292" type="line"/>
      <point x="96" y="1242" type="line"/>
      <point x="220" y="1228" type="line"/>
      <point x="220" y="68" type="line"/>
      <point x="92" y="52" type="line"/>
      <point x="92" y="0" type="line"/>
      <point x="505" y="0" type="line"/>
      <point x="505" y="52" type="line"/>
      <point x="371" y="68" type="line"/>
      <point x="371" y="644" type="line"/>
      <point x="625" y="644" type="line"/>
      <point x="625" y="254"/>
      <point x="803" y="-15"/>
      <point x="1114" y="-15" type="curve" smooth="yes"/>
      <point x="1388" y="-15"/>
      <point x="1605" y="225"/>
      <point x="1611" y="654" type="curve" smooth="yes"/>
      <point x="1617" y="1027"/>
      <point x="1442" y="1307"/>
      <point x="1136" y="1306" type="curve" smooth="yes"/>
      <point x="885" y="1306"/>
      <point x="661" y="1088"/>
    </contour>
    <contour>
      <point x="1126" y="1235" type="curve" smooth="yes"/>
      <point x="1332" y="1235"/>
      <point x="1445" y="939"/>
      <point x="1445" y="655" type="curve" smooth="yes"/>
      <point x="1445" y="247"/>
      <point x="1321" y="59"/>
      <point x="1124" y="59" type="curve" smooth="yes"/>
      <point x="908" y="59"/>
      <point x="790" y="349"/>
      <point x="790" y="626" type="curve" smooth="yes"/>
      <point x="790" y="1053"/>
      <point x="933" y="1235"/>
    </contour>
  </outline>
</glyph>
<glyph name="izhitsa-cy.sc" format="1">
  <advance width="1145"/>
  <outline>
    <contour>
      <point x="842" y="1080" type="curve"/>
      <point x="641" y="358" type="line"/>
      <point x="589" y="74" type="line"/>
      <point x="532" y="360" type="line"/>
      <point x="283" y="1229" type="line"/>
      <point x="417" y="1242" type="line"/>
      <point x="417" y="1292" type="line"/>
      <point x="26" y="1292" type="line"/>
      <point x="26" y="1242" type="line"/>
      <point x="120" y="1229" type="line"/>
      <point x="508" y="-15" type="line"/>
      <point x="630" y="-15" type="line"/>
      <point x="930" y="1012" type="line"/>
      <point x="970" y="1193"/>
      <point x="1046" y="1198"/>
      <point x="1114" y="1198" type="curve" smooth="yes"/>
      <point x="1121" y="1198"/>
      <point x="1127" y="1198"/>
      <point x="1127" y="1198" type="curve"/>
      <point x="1127" y="1282" type="line"/>
      <point x="1118" y="1283"/>
      <point x="1099" y="1289"/>
      <point x="1051" y="1289" type="curve" smooth="yes"/>
      <point x="975" y="1289"/>
      <point x="877" y="1245"/>
    </contour>
  </outline>
</glyph>
<glyph name="ka-cy.sc" format="1">
  <advance width="1109"/>
  <outline>
    <contour>
      <point x="555" y="1263" type="move" name="top"/>
    </contour>
    <contour>
      <point x="555" y="648" type="move" name="center"/>
    </contour>
    <contour>
      <point x="1065" y="0" type="move" name="bottomright"/>
    </contour>
    <contour>
      <point x="603" y="651" type="curve"/>
      <point x="945" y="1228" type="line"/>
      <point x="1065" y="1242" type="line"/>
      <point x="1065" y="1292" type="line"/>
      <point x="692" y="1292" type="line"/>
      <point x="692" y="1242" type="line"/>
      <point x="824" y="1227" type="line"/>
      <point x="504" y="661" type="line"/>
      <point x="368" y="661" type="line"/>
      <point x="368" y="1228" type="line"/>
      <point x="496" y="1242" type="line"/>
      <point x="496" y="1292" type="line"/>
      <point x="93" y="1292" type="line"/>
      <point x="93" y="1242" type="line"/>
      <point x="219" y="1228" type="line"/>
      <point x="219" y="68" type="line"/>
      <point x="93" y="55" type="line"/>
      <point x="93" y="0" type="line"/>
      <point x="504" y="0" type="line"/>
      <point x="504" y="53" type="line"/>
      <point x="368" y="68" type="line"/>
      <point x="368" y="601" type="line"/>
      <point x="472" y="601" type="line" smooth="yes"/>
      <point x="604" y="601"/>
      <point x="796" y="0"/>
      <point x="904" y="0" type="curve"/>
      <point x="1085" y="0" type="line"/>
      <point x="1085" y="52" type="line"/>
      <point x="1026" y="68" type="line" smooth="yes"/>
      <point x="941" y="92"/>
      <point x="759" y="569"/>
    </contour>
  </outline>
</glyph>
<glyph name="kabashkir-cy.sc" format="1">
  <advance width="1340"/>
  <outline>
    <contour>
      <point x="827" y="-144" type="move" name="mark0"/>
    </contour>
    <contour>
      <point x="853" y="654" type="curve"/>
      <point x="1188" y="1228" type="line"/>
      <point x="1309" y="1242" type="line"/>
      <point x="1309" y="1292" type="line"/>
      <point x="937" y="1292" type="line"/>
      <point x="937" y="1242" type="line"/>
      <point x="1062" y="1227" type="line"/>
      <point x="752" y="670" type="line"/>
      <point x="612" y="670" type="line"/>
      <point x="612" y="1228" type="line"/>
      <point x="750" y="1242" type="line"/>
      <point x="750" y="1292" type="line"/>
      <point x="88" y="1292" type="line"/>
      <point x="71" y="928" type="line"/>
      <point x="174" y="928" type="line"/>
      <point x="218" y="1227" type="line"/>
      <point x="463" y="1240" type="line"/>
      <point x="463" y="68" type="line"/>
      <point x="327" y="52" type="line"/>
      <point x="327" y="0" type="line"/>
      <point x="752" y="0" type="line"/>
      <point x="752" y="53" type="line"/>
      <point x="612" y="66" type="line"/>
      <point x="612" y="594" type="line"/>
      <point x="713" y="594" type="line" smooth="yes"/>
      <point x="845" y="594"/>
      <point x="1041" y="0"/>
      <point x="1153" y="0" type="curve"/>
      <point x="1332" y="0" type="line"/>
      <point x="1332" y="52" type="line"/>
      <point x="1269" y="71" type="line" smooth="yes"/>
      <point x="1190" y="96"/>
      <point x="1003" y="561"/>
    </contour>
  </outline>
</glyph>
<glyph name="kadescender-cy.sc" format="1">
  <advance width="1111"/>
  <outline>
    <contour>
      <point x="598" y="651" type="curve"/>
      <point x="941" y="1228" type="line"/>
      <point x="1060" y="1242" type="line"/>
      <point x="1060" y="1292" type="line"/>
      <point x="688" y="1292" type="line"/>
      <point x="688" y="1242" type="line"/>
      <point x="819" y="1227" type="line"/>
      <point x="499" y="661" type="line"/>
      <point x="363" y="661" type="line"/>
      <point x="363" y="1228" type="line"/>
      <point x="491" y="1242" type="line"/>
      <point x="491" y="1292" type="line"/>
      <point x="89" y="1292" type="line"/>
      <point x="89" y="1242" type="line"/>
      <point x="214" y="1228" type="line"/>
      <point x="214" y="68" type="line"/>
      <point x="89" y="55" type="line"/>
      <point x="89" y="0" type="line"/>
      <point x="499" y="0" type="line"/>
      <point x="499" y="53" type="line"/>
      <point x="363" y="68" type="line"/>
      <point x="363" y="601" type="line"/>
      <point x="467" y="601" type="line" smooth="yes"/>
      <point x="599" y="601"/>
      <point x="791" y="0"/>
      <point x="900" y="0" type="curve" smooth="yes"/>
      <point x="954" y="0" type="line"/>
      <point x="960" y="7"/>
      <point x="973" y="-277"/>
      <point x="973" y="-292" type="curve"/>
      <point x="1068" y="-292" type="line"/>
      <point x="1080" y="-132"/>
      <point x="1098" y="-41"/>
      <point x="1108" y="68" type="curve"/>
      <point x="1020" y="68" type="line"/>
      <point x="934" y="103"/>
      <point x="753" y="569"/>
    </contour>
  </outline>
</glyph>
<glyph name="kahook-cy.sc" format="1">
  <advance width="1115"/>
  <outline>
    <contour>
      <point x="368" y="676" type="curve"/>
      <point x="368" y="1228" type="line"/>
      <point x="496" y="1242" type="line"/>
      <point x="496" y="1292" type="line"/>
      <point x="93" y="1292" type="line"/>
      <point x="93" y="1242" type="line"/>
      <point x="219" y="1228" type="line"/>
      <point x="219" y="68" type="line"/>
      <point x="93" y="55" type="line"/>
      <point x="93" y="0" type="line"/>
      <point x="504" y="0" type="line"/>
      <point x="504" y="53" type="line"/>
      <point x="368" y="68" type="line"/>
      <point x="368" y="622" type="line"/>
      <point x="443" y="642"/>
      <point x="496" y="661"/>
      <point x="595" y="661" type="curve" smooth="yes"/>
      <point x="767" y="661"/>
      <point x="839" y="540"/>
      <point x="839" y="311" type="curve" smooth="yes"/>
      <point x="839" y="-84"/>
      <point x="758" y="-259"/>
      <point x="592" y="-259" type="curve" smooth="yes"/>
      <point x="560" y="-259"/>
      <point x="534" y="-260"/>
      <point x="523" y="-258" type="curve"/>
      <point x="524" y="-329" type="line"/>
      <point x="542" y="-338"/>
      <point x="590" y="-335"/>
      <point x="620" y="-335" type="curve" smooth="yes"/>
      <point x="855" y="-335"/>
      <point x="992" y="-44"/>
      <point x="992" y="310" type="curve" smooth="yes"/>
      <point x="992" y="526"/>
      <point x="913" y="732"/>
      <point x="657" y="735" type="curve"/>
      <point x="947" y="1228" type="line"/>
      <point x="1067" y="1242" type="line"/>
      <point x="1067" y="1292" type="line"/>
      <point x="695" y="1292" type="line"/>
      <point x="695" y="1242" type="line"/>
      <point x="825" y="1228" type="line"/>
      <point x="538" y="730" type="line"/>
      <point x="480" y="716"/>
      <point x="412" y="697"/>
    </contour>
  </outline>
</glyph>
<glyph name="kastroke-cy.sc" format="1">
  <advance width="1107"/>
  <outline>
    <contour>
      <point x="577" y="-144" type="move" name="mark0"/>
    </contour>
    <contour>
      <point x="604" y="650" type="curve"/>
      <point x="942" y="1229" type="line"/>
      <point x="1061" y="1242" type="line"/>
      <point x="1061" y="1292" type="line"/>
      <point x="689" y="1292" type="line"/>
      <point x="689" y="1242" type="line"/>
      <point x="820" y="1227" type="line"/>
      <point x="505" y="660" type="line"/>
      <point x="364" y="660" type="line"/>
      <point x="364" y="916" type="line"/>
      <point x="499" y="916" type="line"/>
      <point x="499" y="991" type="line"/>
      <point x="364" y="991" type="line"/>
      <point x="364" y="1229" type="line"/>
      <point x="492" y="1242" type="line"/>
      <point x="492" y="1292" type="line"/>
      <point x="89" y="1292" type="line"/>
      <point x="89" y="1242" type="line"/>
      <point x="215" y="1229" type="line"/>
      <point x="215" y="991" type="line"/>
      <point x="91" y="991" type="line"/>
      <point x="91" y="916" type="line"/>
      <point x="215" y="916" type="line"/>
      <point x="215" y="69" type="line"/>
      <point x="89" y="55" type="line"/>
      <point x="89" y="0" type="line"/>
      <point x="500" y="0" type="line"/>
      <point x="500" y="53" type="line"/>
      <point x="364" y="69" type="line"/>
      <point x="364" y="601" type="line"/>
      <point x="473" y="601" type="line" smooth="yes"/>
      <point x="605" y="601"/>
      <point x="792" y="0"/>
      <point x="901" y="0" type="curve" smooth="yes"/>
      <point x="1081" y="0" type="line"/>
      <point x="1081" y="52" type="line"/>
      <point x="1022" y="69" type="line" smooth="yes"/>
      <point x="938" y="91"/>
      <point x="759" y="569"/>
    </contour>
  </outline>
</glyph>
<glyph name="kaverticalstroke-cy.sc" format="1">
  <advance width="1178"/>
  <outline>
    <contour>
      <point x="728" y="650" type="curve"/>
      <point x="1013" y="1227" type="line"/>
      <point x="1129" y="1242" type="line"/>
      <point x="1129" y="1292" type="line"/>
      <point x="758" y="1292" type="line"/>
      <point x="758" y="1242" type="line"/>
      <point x="891" y="1225" type="line"/>
      <point x="627" y="670" type="line"/>
      <point x="569" y="670" type="line"/>
      <point x="569" y="964" type="line"/>
      <point x="487" y="964" type="line"/>
      <point x="487" y="670" type="line"/>
      <point x="368" y="670" type="line"/>
      <point x="368" y="1228" type="line"/>
      <point x="496" y="1242" type="line"/>
      <point x="496" y="1292" type="line"/>
      <point x="93" y="1292" type="line"/>
      <point x="93" y="1242" type="line"/>
      <point x="219" y="1228" type="line"/>
      <point x="219" y="68" type="line"/>
      <point x="93" y="55" type="line"/>
      <point x="93" y="0" type="line"/>
      <point x="504" y="0" type="line"/>
      <point x="504" y="53" type="line"/>
      <point x="368" y="68" type="line"/>
      <point x="368" y="594" type="line"/>
      <point x="487" y="594" type="line"/>
      <point x="487" y="314" type="line"/>
      <point x="569" y="314" type="line"/>
      <point x="569" y="592" type="line"/>
      <point x="602" y="592" type="line" smooth="yes"/>
      <point x="728" y="640"/>
      <point x="885" y="0"/>
      <point x="1001" y="0" type="curve" smooth="yes"/>
      <point x="1174" y="2" type="line"/>
      <point x="1174" y="52" type="line"/>
      <point x="1115" y="71" type="line" smooth="yes"/>
      <point x="1036" y="96"/>
      <point x="874" y="547"/>
    </contour>
  </outline>
</glyph>
<glyph name="komidzje-cy.sc" format="1">
  <advance width="1046"/>
  <outline>
    <contour>
      <point x="407" y="691" type="curve" smooth="yes"/>
      <point x="316" y="691" type="line"/>
      <point x="316" y="630" type="line"/>
      <point x="424" y="630" type="line" smooth="yes"/>
      <point x="624" y="630"/>
      <point x="704" y="521"/>
      <point x="704" y="326" type="curve" smooth="yes"/>
      <point x="704" y="245"/>
      <point x="658" y="87"/>
      <point x="563" y="86" type="curve"/>
      <point x="563" y="0" type="line"/>
      <point x="863" y="0" type="line"/>
      <point x="864" y="17"/>
      <point x="872" y="-193"/>
      <point x="874" y="-290" type="curve"/>
      <point x="969" y="-290" type="line"/>
      <point x="1002" y="157"/>
      <point x="1000" y="-76"/>
      <point x="1016" y="79" type="curve"/>
      <point x="799" y="79" type="line"/>
      <point x="833" y="104"/>
      <point x="884" y="220"/>
      <point x="884" y="322" type="curve" smooth="yes"/>
      <point x="884" y="508"/>
      <point x="756" y="686"/>
      <point x="561" y="682" type="curve"/>
      <point x="690" y="709"/>
      <point x="814" y="816"/>
      <point x="814" y="1016" type="curve" smooth="yes"/>
      <point x="814" y="1216"/>
      <point x="679" y="1306"/>
      <point x="431" y="1306" type="curve" smooth="yes"/>
      <point x="315" y="1306"/>
      <point x="188" y="1254"/>
      <point x="124" y="1246" type="curve"/>
      <point x="140" y="1009" type="line"/>
      <point x="232" y="1009" type="line"/>
      <point x="259" y="1154" type="line"/>
      <point x="283" y="1207"/>
      <point x="351" y="1236"/>
      <point x="442" y="1236" type="curve" smooth="yes"/>
      <point x="573" y="1236"/>
      <point x="651" y="1169"/>
      <point x="653" y="988" type="curve"/>
      <point x="653" y="806"/>
      <point x="529" y="691"/>
    </contour>
  </outline>
</glyph>
<glyph name="komilje-cy.sc" format="1">
  <advance width="1597"/>
  <outline>
    <contour>
      <point x="465" y="-144" type="move" name="mark0"/>
    </contour>
    <contour>
      <point x="1442" y="286" type="curve" smooth="yes"/>
      <point x="1442" y="615" type="line"/>
      <point x="1556" y="631" type="line"/>
      <point x="1556" y="696" type="line"/>
      <point x="1167" y="696" type="line"/>
      <point x="1167" y="631" type="line"/>
      <point x="1290" y="615" type="line"/>
      <point x="1290" y="330" type="line" smooth="yes"/>
      <point x="1290" y="140"/>
      <point x="1244" y="54"/>
      <point x="1105" y="54" type="curve" smooth="yes"/>
      <point x="982" y="54"/>
      <point x="941" y="138"/>
      <point x="941" y="335" type="curve" smooth="yes"/>
      <point x="941" y="1229" type="line"/>
      <point x="1086" y="1242" type="line"/>
      <point x="1086" y="1292" type="line"/>
      <point x="203" y="1292" type="line"/>
      <point x="203" y="1242" type="line"/>
      <point x="378" y="1229" type="line"/>
      <point x="378" y="1047" type="line" smooth="yes"/>
      <point x="378" y="587"/>
      <point x="332" y="306"/>
      <point x="258" y="170" type="curve"/>
      <point x="235" y="136"/>
      <point x="206" y="108"/>
      <point x="165" y="108" type="curve" smooth="yes"/>
      <point x="104" y="108"/>
      <point x="70" y="112"/>
      <point x="50" y="116" type="curve"/>
      <point x="61" y="0" type="line"/>
      <point x="82" y="-2"/>
      <point x="120" y="-9"/>
      <point x="168" y="-9" type="curve" smooth="yes"/>
      <point x="241" y="-9"/>
      <point x="295" y="24"/>
      <point x="340" y="103" type="curve" smooth="yes"/>
      <point x="427" y="264"/>
      <point x="468" y="587"/>
      <point x="468" y="1033" type="curve" smooth="yes"/>
      <point x="468" y="1229" type="line"/>
      <point x="789" y="1229" type="line"/>
      <point x="789" y="292" type="line" smooth="yes"/>
      <point x="789" y="104"/>
      <point x="889" y="-14"/>
      <point x="1101" y="-14" type="curve" smooth="yes"/>
      <point x="1317" y="-14"/>
      <point x="1442" y="111"/>
    </contour>
  </outline>
</glyph>
<glyph name="komisje-cy.sc" format="1">
  <advance width="1162"/>
  <outline>
    <contour>
      <point x="595" y="-144" type="move" name="mark0"/>
    </contour>
    <contour>
      <point x="1006" y="286" type="curve" smooth="yes"/>
      <point x="1006" y="615" type="line"/>
      <point x="1119" y="631" type="line"/>
      <point x="1119" y="697" type="line"/>
      <point x="736" y="697" type="line"/>
      <point x="736" y="631" type="line"/>
      <point x="858" y="615" type="line"/>
      <point x="858" y="331" type="line" smooth="yes"/>
      <point x="858" y="140"/>
      <point x="806" y="55"/>
      <point x="647" y="54" type="curve" smooth="yes"/>
      <point x="380" y="54"/>
      <point x="240" y="382"/>
      <point x="240" y="668" type="curve" smooth="yes"/>
      <point x="240" y="1039"/>
      <point x="406" y="1236"/>
      <point x="637" y="1236" type="curve" smooth="yes"/>
      <point x="775" y="1236"/>
      <point x="848" y="1204"/>
      <point x="867" y="1185" type="curve"/>
      <point x="904" y="984" type="line"/>
      <point x="1002" y="984" type="line"/>
      <point x="1017" y="1252" type="line"/>
      <point x="966" y="1264"/>
      <point x="813" y="1306"/>
      <point x="651" y="1306" type="curve" smooth="yes"/>
      <point x="327" y="1306"/>
      <point x="67" y="1048"/>
      <point x="67" y="629" type="curve" smooth="yes"/>
      <point x="67" y="291"/>
      <point x="293" y="-14"/>
      <point x="643" y="-14" type="curve" smooth="yes"/>
      <point x="872" y="-14"/>
      <point x="1006" y="110"/>
    </contour>
  </outline>
</glyph>
<glyph name="komitje-cy.sc" format="1">
  <advance width="1290"/>
  <outline>
    <contour>
      <point x="587" y="-144" type="move" name="mark0"/>
    </contour>
    <contour>
      <point x="637" y="335" type="curve" smooth="yes"/>
      <point x="637" y="1238" type="line"/>
      <point x="923" y="1238" type="line"/>
      <point x="968" y="894" type="line"/>
      <point x="1063" y="894" type="line"/>
      <point x="1045" y="1292" type="line"/>
      <point x="87" y="1292" type="line"/>
      <point x="62" y="894" type="line"/>
      <point x="156" y="894" type="line"/>
      <point x="206" y="1238" type="line"/>
      <point x="484" y="1238" type="line"/>
      <point x="484" y="292" type="line" smooth="yes"/>
      <point x="484" y="106"/>
      <point x="585" y="-14"/>
      <point x="797" y="-14" type="curve" smooth="yes"/>
      <point x="1009" y="-14"/>
      <point x="1138" y="108"/>
      <point x="1138" y="286" type="curve" smooth="yes"/>
      <point x="1138" y="615" type="line"/>
      <point x="1249" y="631" type="line"/>
      <point x="1249" y="697" type="line"/>
      <point x="863" y="697" type="line"/>
      <point x="863" y="631" type="line"/>
      <point x="986" y="615" type="line"/>
      <point x="986" y="331" type="line" smooth="yes"/>
      <point x="986" y="143"/>
      <point x="940" y="54"/>
      <point x="801" y="54" type="curve" smooth="yes"/>
      <point x="673" y="54"/>
      <point x="637" y="145"/>
    </contour>
  </outline>
</glyph>
<glyph name="lje-cy.sc" format="1">
  <advance width="1591"/>
  <outline>
    <contour>
      <point x="501" y="-144" type="move" name="mark0"/>
    </contour>
    <contour>
      <point x="936" y="711" type="curve"/>
      <point x="936" y="1228" type="line"/>
      <point x="1081" y="1242" type="line"/>
      <point x="1081" y="1292" type="line"/>
      <point x="227" y="1292" type="line"/>
      <point x="227" y="1242" type="line"/>
      <point x="376" y="1227" type="line"/>
      <point x="376" y="1047" type="line" smooth="yes"/>
      <point x="376" y="591"/>
      <point x="332" y="303"/>
      <point x="256" y="166" type="curve"/>
      <point x="232" y="125"/>
      <point x="202" y="107"/>
      <point x="166" y="107" type="curve" smooth="yes"/>
      <point x="102" y="107"/>
      <point x="70" y="111"/>
      <point x="50" y="117" type="curve"/>
      <point x="60" y="0" type="line"/>
      <point x="81" y="-2"/>
      <point x="120" y="-8"/>
      <point x="169" y="-8" type="curve" smooth="yes"/>
      <point x="244" y="-8"/>
      <point x="295" y="24"/>
      <point x="339" y="99" type="curve" smooth="yes"/>
      <point x="426" y="265"/>
      <point x="468" y="578"/>
      <point x="468" y="1033" type="curve" smooth="yes"/>
      <point x="468" y="1229" type="line"/>
      <point x="787" y="1229" type="line"/>
      <point x="786" y="68" type="line"/>
      <point x="628" y="52" type="line"/>
      <point x="628" y="0" type="line"/>
      <point x="865" y="0" type="line" smooth="yes"/>
      <point x="931" y="0"/>
      <point x="1083" y="-14"/>
      <point x="1120" y="-14" type="curve" smooth="yes"/>
      <point x="1362" y="-14"/>
      <point x="1529" y="114"/>
      <point x="1529" y="378" type="curve" smooth="yes"/>
      <point x="1529" y="600"/>
      <point x="1393" y="732"/>
      <point x="1139" y="732" type="curve" smooth="yes"/>
      <point x="1063" y="732"/>
      <point x="969" y="720"/>
    </contour>
    <contour>
      <point x="936" y="60" type="curve"/>
      <point x="936" y="641" type="line"/>
      <point x="962" y="649"/>
      <point x="1034" y="654"/>
      <point x="1097" y="654" type="curve" smooth="yes"/>
      <point x="1268" y="654"/>
      <point x="1369" y="560"/>
      <point x="1369" y="370" type="curve" smooth="yes"/>
      <point x="1369" y="142"/>
      <point x="1272" y="44"/>
      <point x="1095" y="44" type="curve" smooth="yes"/>
      <point x="1020" y="44"/>
      <point x="981" y="50"/>
    </contour>
  </outline>
</glyph>
<glyph name="nje-cy.sc" format="1">
  <advance width="1692"/>
  <outline>
    <contour>
      <point x="646" y="-144" type="move" name="mark0"/>
    </contour>
    <contour>
      <point x="1242" y="733" type="curve" smooth="yes"/>
      <point x="1041" y="733" type="line"/>
      <point x="1041" y="1226" type="line"/>
      <point x="1174" y="1246" type="line"/>
      <point x="1174" y="1292" type="line"/>
      <point x="758" y="1292" type="line"/>
      <point x="758" y="1246" type="line"/>
      <point x="889" y="1227" type="line"/>
      <point x="889" y="700" type="line"/>
      <point x="371" y="700" type="line"/>
      <point x="371" y="1228" type="line"/>
      <point x="504" y="1242" type="line"/>
      <point x="504" y="1292" type="line"/>
      <point x="96" y="1292" type="line"/>
      <point x="96" y="1242" type="line"/>
      <point x="220" y="1227" type="line"/>
      <point x="220" y="66" type="line"/>
      <point x="87" y="52" type="line"/>
      <point x="87" y="0" type="line"/>
      <point x="515" y="0" type="line"/>
      <point x="515" y="52" type="line"/>
      <point x="371" y="63" type="line"/>
      <point x="371" y="634" type="line"/>
      <point x="889" y="634" type="line"/>
      <point x="889" y="63" type="line"/>
      <point x="764" y="52" type="line"/>
      <point x="764" y="0" type="line"/>
      <point x="943" y="0" type="line" smooth="yes"/>
      <point x="1006" y="0"/>
      <point x="1175" y="-20"/>
      <point x="1230" y="-20" type="curve" smooth="yes"/>
      <point x="1469" y="-20"/>
      <point x="1632" y="93"/>
      <point x="1632" y="380" type="curve" smooth="yes"/>
      <point x="1632" y="602"/>
      <point x="1492" y="733"/>
    </contour>
    <contour>
      <point x="1041" y="77" type="curve"/>
      <point x="1041" y="652" type="line"/>
      <point x="1201" y="652" type="line" smooth="yes"/>
      <point x="1369" y="652"/>
      <point x="1474" y="548"/>
      <point x="1474" y="371" type="curve" smooth="yes"/>
      <point x="1474" y="140"/>
      <point x="1374" y="51"/>
      <point x="1199" y="51" type="curve" smooth="yes"/>
      <point x="1130" y="51"/>
      <point x="1081" y="71"/>
    </contour>
  </outline>
</glyph>
<glyph name="obarred-cy.sc" format="1">
  <advance width="1123"/>
  <outline>
    <contour>
      <point x="577" y="1263" type="move" name="top"/>
    </contour>
    <contour>
      <point x="554" y="-144" type="move" name="mark0"/>
    </contour>
    <contour>
      <point x="575" y="1306" type="curve" smooth="yes"/>
      <point x="282" y="1306"/>
      <point x="57" y="1046"/>
      <point x="57" y="633" type="curve" smooth="yes"/>
      <point x="57" y="247"/>
      <point x="228" y="-28"/>
      <point x="551" y="-20" type="curve" smooth="yes"/>
      <point x="843" y="-12"/>
      <point x="1066" y="243"/>
      <point x="1066" y="653" type="curve" smooth="yes"/>
      <point x="1066" y="1046"/>
      <point x="898" y="1307"/>
    </contour>
    <contour>
      <point x="226" y="616" type="curve"/>
      <point x="894" y="616" type="line"/>
      <point x="882" y="237"/>
      <point x="749" y="44"/>
      <point x="558" y="44" type="curve" smooth="yes"/>
      <point x="354" y="44"/>
      <point x="233" y="313"/>
    </contour>
    <contour>
      <point x="895" y="683" type="curve"/>
      <point x="226" y="683" type="line"/>
      <point x="238" y="1042"/>
      <point x="366" y="1241"/>
      <point x="563" y="1241" type="curve" smooth="yes"/>
      <point x="768" y="1241"/>
      <point x="885" y="978"/>
    </contour>
  </outline>
</glyph>
<glyph name="pe-cy.sc" format="1">
  <advance width="1253"/>
  <outline>
    <contour>
      <point x="874" y="0" type="move" name="bottomright"/>
    </contour>
    <contour>
      <point x="89" y="1292" type="line"/>
      <point x="89" y="1242" type="line"/>
      <point x="222" y="1228" type="line"/>
      <point x="222" y="66" type="line"/>
      <point x="96" y="52" type="line"/>
      <point x="96" y="0" type="line"/>
      <point x="518" y="0" type="line"/>
      <point x="518" y="52" type="line"/>
      <point x="372" y="66" type="line"/>
      <point x="372" y="1219" type="line"/>
      <point x="882" y="1219" type="line"/>
      <point x="882" y="69" type="line"/>
      <point x="752" y="52" type="line"/>
      <point x="752" y="0" type="line"/>
      <point x="1178" y="0" type="line"/>
      <point x="1178" y="52" type="line"/>
      <point x="1033" y="68" type="line"/>
      <point x="1033" y="1224" type="line"/>
      <point x="1166" y="1244" type="line"/>
      <point x="1166" y="1292" type="line"/>
    </contour>
  </outline>
</glyph>
<glyph name="pemiddlehook-cy.sc" format="1">
  <advance width="1694"/>
  <outline>
    <contour>
      <point x="639" y="-144" type="move" name="mark0"/>
    </contour>
    <contour>
      <point x="1033" y="685" type="curve"/>
      <point x="1033" y="1224" type="line"/>
      <point x="1166" y="1244" type="line"/>
      <point x="1166" y="1292" type="line"/>
      <point x="89" y="1292" type="line"/>
      <point x="89" y="1242" type="line"/>
      <point x="222" y="1228" type="line"/>
      <point x="222" y="66" type="line"/>
      <point x="96" y="52" type="line"/>
      <point x="96" y="0" type="line"/>
      <point x="518" y="0" type="line"/>
      <point x="518" y="52" type="line"/>
      <point x="372" y="66" type="line"/>
      <point x="372" y="1219" type="line"/>
      <point x="882" y="1219" type="line"/>
      <point x="882" y="69" type="line"/>
      <point x="752" y="52" type="line"/>
      <point x="752" y="0" type="line"/>
      <point x="1178" y="0" type="line"/>
      <point x="1178" y="52" type="line"/>
      <point x="1033" y="68" type="line"/>
      <point x="1033" y="628" type="line"/>
      <point x="1085" y="648"/>
      <point x="1149" y="661"/>
      <point x="1237" y="661" type="curve" smooth="yes"/>
      <point x="1408" y="661"/>
      <point x="1463" y="540"/>
      <point x="1463" y="311" type="curve" smooth="yes"/>
      <point x="1463" y="-64"/>
      <point x="1399" y="-260"/>
      <point x="1239" y="-260" type="curve" smooth="yes"/>
      <point x="1207" y="-260"/>
      <point x="1177" y="-267"/>
      <point x="1162" y="-262" type="curve"/>
      <point x="1165" y="-331" type="line"/>
      <point x="1185" y="-340"/>
      <point x="1229" y="-337"/>
      <point x="1259" y="-337" type="curve" smooth="yes"/>
      <point x="1494" y="-337"/>
      <point x="1618" y="-34"/>
      <point x="1618" y="302" type="curve" smooth="yes"/>
      <point x="1618" y="509"/>
      <point x="1553" y="737"/>
      <point x="1273" y="737" type="curve" smooth="yes"/>
      <point x="1182" y="737"/>
      <point x="1076" y="711"/>
    </contour>
  </outline>
</glyph>
<glyph name="reversedze-cy.sc" format="1">
  <advance width="931"/>
  <outline>
    <contour>
      <point x="823" y="46" type="curve"/>
      <point x="857" y="248" type="line"/>
      <point x="771" y="266" type="line"/>
      <point x="707" y="120" type="line"/>
      <point x="670" y="80"/>
      <point x="593" y="49"/>
      <point x="514" y="49" type="curve" smooth="yes"/>
      <point x="358" y="49"/>
      <point x="268" y="139"/>
      <point x="268" y="338" type="curve" smooth="yes"/>
      <point x="268" y="469"/>
      <point x="319" y="640"/>
      <point x="530" y="640" type="curve"/>
      <point x="645" y="635" type="line"/>
      <point x="645" y="714" type="line"/>
      <point x="549" y="700" type="line"/>
      <point x="423" y="700"/>
      <point x="290" y="759"/>
      <point x="290" y="950" type="curve" smooth="yes"/>
      <point x="290" y="1131"/>
      <point x="374" y="1239"/>
      <point x="513" y="1239" type="curve" smooth="yes"/>
      <point x="607" y="1239"/>
      <point x="674" y="1205"/>
      <point x="696" y="1185" type="curve"/>
      <point x="725" y="1000" type="line"/>
      <point x="818" y="1000" type="line"/>
      <point x="831" y="1251" type="line"/>
      <point x="767" y="1272"/>
      <point x="619" y="1306"/>
      <point x="519" y="1306" type="curve" smooth="yes"/>
      <point x="272" y="1306"/>
      <point x="128" y="1186"/>
      <point x="128" y="974" type="curve" smooth="yes"/>
      <point x="128" y="779"/>
      <point x="264" y="697"/>
      <point x="394" y="672" type="curve"/>
      <point x="202" y="662"/>
      <point x="93" y="518"/>
      <point x="93" y="323" type="curve" smooth="yes"/>
      <point x="93" y="111"/>
      <point x="215" y="-20"/>
      <point x="507" y="-20" type="curve" smooth="yes"/>
      <point x="653" y="-20"/>
      <point x="744" y="43"/>
    </contour>
  </outline>
</glyph>
<glyph name="semisoftsign-cy.sc" format="1">
  <advance width="1027"/>
  <outline>
    <contour>
      <point x="371" y="792" type="curve"/>
      <point x="371" y="958" type="line"/>
      <point x="568" y="958" type="line"/>
      <point x="568" y="1025" type="line"/>
      <point x="371" y="1025" type="line"/>
      <point x="371" y="1227" type="line"/>
      <point x="521" y="1246" type="line"/>
      <point x="521" y="1292" type="line"/>
      <point x="93" y="1292" type="line"/>
      <point x="93" y="1246" type="line"/>
      <point x="220" y="1226" type="line"/>
      <point x="220" y="1025" type="line"/>
      <point x="65" y="1025" type="line"/>
      <point x="65" y="958" type="line"/>
      <point x="220" y="958" type="line"/>
      <point x="220" y="66" type="line"/>
      <point x="90" y="52" type="line"/>
      <point x="90" y="0" type="line"/>
      <point x="297" y="0" type="line" smooth="yes"/>
      <point x="373" y="0"/>
      <point x="505" y="-14"/>
      <point x="554" y="-14" type="curve" smooth="yes"/>
      <point x="794" y="-14"/>
      <point x="965" y="125"/>
      <point x="965" y="408" type="curve" smooth="yes"/>
      <point x="965" y="651"/>
      <point x="828" y="791"/>
      <point x="576" y="791" type="curve"/>
      <point x="514" y="791"/>
      <point x="431" y="791"/>
    </contour>
    <contour>
      <point x="371" y="65" type="curve"/>
      <point x="371" y="718" type="line"/>
      <point x="422" y="718"/>
      <point x="483" y="716"/>
      <point x="533" y="716" type="curve" smooth="yes"/>
      <point x="703" y="716"/>
      <point x="805" y="614"/>
      <point x="805" y="402" type="curve" smooth="yes"/>
      <point x="805" y="148"/>
      <point x="706" y="50"/>
      <point x="532" y="50" type="curve" smooth="yes"/>
      <point x="450" y="50"/>
      <point x="414" y="57"/>
    </contour>
  </outline>
</glyph>
<glyph name="shcha-cy.sc" format="1">
  <advance width="1730"/>
  <outline>
    <contour>
      <point x="1677" y="68" type="curve"/>
      <point x="1490" y="68" type="line"/>
      <point x="1490" y="1227" type="line"/>
      <point x="1619" y="1242" type="line"/>
      <point x="1619" y="1292" type="line"/>
      <point x="1224" y="1292" type="line"/>
      <point x="1224" y="1242" type="line"/>
      <point x="1340" y="1228" type="line"/>
      <point x="1340" y="66" type="line"/>
      <point x="932" y="66" type="line"/>
      <point x="932" y="1227" type="line"/>
      <point x="1055" y="1242" type="line"/>
      <point x="1055" y="1292" type="line"/>
      <point x="668" y="1292" type="line"/>
      <point x="668" y="1242" type="line"/>
      <point x="786" y="1227" type="line"/>
      <point x="786" y="66" type="line"/>
      <point x="371" y="66" type="line"/>
      <point x="371" y="1227" type="line"/>
      <point x="512" y="1242" type="line"/>
      <point x="512" y="1292" type="line"/>
      <point x="92" y="1292" type="line"/>
      <point x="92" y="1242" type="line"/>
      <point x="222" y="1227" type="line"/>
      <point x="222" y="68" type="line"/>
      <point x="74" y="52" type="line"/>
      <point x="74" y="0" type="line"/>
      <point x="1522" y="0" type="line"/>
      <point x="1527" y="5"/>
      <point x="1541" y="-277"/>
      <point x="1542" y="-292" type="curve"/>
      <point x="1637" y="-292" type="line"/>
      <point x="1650" y="-101"/>
      <point x="1667" y="-40"/>
    </contour>
  </outline>
</glyph>
<glyph name="shha-cy.sc" format="1">
  <advance width="1080"/>
  <outline>
    <contour>
      <point x="36" y="1124" type="move" name="topleft"/>
    </contour>
    <contour>
      <point x="536" y="476" type="move" name="center"/>
    </contour>
    <contour>
      <point x="579" y="-168" type="move" name="bottom"/>
    </contour>
    <contour>
      <point x="365" y="690" type="curve"/>
      <point x="365" y="1223" type="line"/>
      <point x="526" y="1240" type="line"/>
      <point x="526" y="1292" type="line"/>
      <point x="75" y="1292" type="line"/>
      <point x="75" y="1239" type="line"/>
      <point x="214" y="1223" type="line"/>
      <point x="214" y="67" type="line"/>
      <point x="77" y="50" type="line"/>
      <point x="77" y="0" type="line"/>
      <point x="503" y="0" type="line"/>
      <point x="503" y="50" type="line"/>
      <point x="365" y="65" type="line"/>
      <point x="365" y="635" type="line"/>
      <point x="407" y="661"/>
      <point x="518" y="691"/>
      <point x="597" y="691" type="curve" smooth="yes"/>
      <point x="791" y="691"/>
      <point x="813" y="641"/>
      <point x="813" y="322" type="curve" smooth="yes"/>
      <point x="813" y="68" type="line"/>
      <point x="679" y="50" type="line"/>
      <point x="679" y="0" type="line"/>
      <point x="1061" y="0" type="line"/>
      <point x="1061" y="50" type="line"/>
      <point x="965" y="67" type="line"/>
      <point x="965" y="364" type="line" smooth="yes"/>
      <point x="965" y="615"/>
      <point x="904" y="764"/>
      <point x="668" y="764" type="curve" smooth="yes"/>
      <point x="572" y="764"/>
      <point x="441" y="736"/>
    </contour>
  </outline>
</glyph>
<glyph name="shhadescender-cy.sc" format="1">
  <advance width="1196"/>
  <outline>
    <contour>
      <point x="35" y="1292" type="move" name="topleft"/>
    </contour>
    <contour>
      <point x="535" y="646" type="move" name="center"/>
    </contour>
    <contour>
      <point x="577" y="0" type="move" name="bottom"/>
    </contour>
    <contour>
      <point x="75" y="0" type="line"/>
      <point x="502" y="0" type="line"/>
      <point x="502" y="50" type="line"/>
      <point x="363" y="67" type="line"/>
      <point x="363" y="635" type="line"/>
      <point x="406" y="661"/>
      <point x="512" y="693"/>
      <point x="596" y="693" type="curve" smooth="yes"/>
      <point x="790" y="693"/>
      <point x="812" y="643"/>
      <point x="812" y="325" type="curve" smooth="yes"/>
      <point x="812" y="70" type="line"/>
      <point x="678" y="52" type="line"/>
      <point x="678" y="0" type="line"/>
      <point x="988" y="0" type="line"/>
      <point x="993" y="0"/>
      <point x="1008" y="-273"/>
      <point x="1008" y="-292" type="curve"/>
      <point x="1103" y="-292" type="line"/>
      <point x="1105" y="-299"/>
      <point x="1143" y="130"/>
      <point x="1143" y="68" type="curve"/>
      <point x="964" y="69" type="line"/>
      <point x="964" y="364" type="line"/>
      <point x="964" y="670"/>
      <point x="878" y="764"/>
      <point x="666" y="764" type="curve" smooth="yes"/>
      <point x="575" y="764"/>
      <point x="441" y="739"/>
      <point x="363" y="692" type="curve"/>
      <point x="363" y="1226" type="line"/>
      <point x="525" y="1240" type="line"/>
      <point x="525" y="1292" type="line"/>
      <point x="74" y="1292" type="line"/>
      <point x="74" y="1242" type="line"/>
      <point x="213" y="1226" type="line"/>
      <point x="213" y="66" type="line"/>
      <point x="75" y="50" type="line"/>
    </contour>
  </outline>
</glyph>
<glyph name="tedescender-cy.sc" format="1">
  <advance width="1134"/>
  <outline>
    <contour>
      <point x="902" y="68" type="curve"/>
      <point x="646" y="68" type="line"/>
      <point x="646" y="1240" type="line"/>
      <point x="924" y="1230" type="line"/>
      <point x="971" y="897" type="line"/>
      <point x="1064" y="897" type="line"/>
      <point x="1046" y="1292" type="line"/>
      <point x="90" y="1292" type="line"/>
      <point x="64" y="897" type="line"/>
      <point x="160" y="897" type="line"/>
      <point x="213" y="1230" type="line"/>
      <point x="488" y="1240" type="line"/>
      <point x="488" y="68" type="line"/>
      <point x="287" y="52" type="line"/>
      <point x="287" y="0" type="line"/>
      <point x="752" y="0" type="line"/>
      <point x="758" y="-115"/>
      <point x="763" y="-167"/>
      <point x="767" y="-292" type="curve"/>
      <point x="860" y="-292" type="line"/>
      <point x="874" y="-112"/>
      <point x="889" y="-84"/>
    </contour>
  </outline>
</glyph>
<glyph name="tetse-cy.sc" format="1">
  <advance width="1531"/>
  <outline>
    <contour>
      <point x="1494" y="68" type="curve"/>
      <point x="1294" y="68" type="line"/>
      <point x="1294" y="1228" type="line"/>
      <point x="1420" y="1242" type="line"/>
      <point x="1420" y="1292" type="line"/>
      <point x="1023" y="1292" type="line"/>
      <point x="1023" y="1242" type="line"/>
      <point x="1143" y="1228" type="line"/>
      <point x="1143" y="73" type="line"/>
      <point x="552" y="73" type="line"/>
      <point x="552" y="1232" type="line"/>
      <point x="750" y="1228" type="line"/>
      <point x="794" y="909" type="line"/>
      <point x="887" y="909" type="line"/>
      <point x="870" y="1292" type="line"/>
      <point x="81" y="1292" type="line"/>
      <point x="63" y="910" type="line"/>
      <point x="158" y="910" type="line"/>
      <point x="201" y="1228" type="line"/>
      <point x="402" y="1231" type="line"/>
      <point x="402" y="66" type="line"/>
      <point x="271" y="52" type="line"/>
      <point x="271" y="0" type="line"/>
      <point x="1338" y="0" type="line"/>
      <point x="1342" y="5"/>
      <point x="1358" y="-256"/>
      <point x="1358" y="-284" type="curve"/>
      <point x="1452" y="-284" type="line"/>
      <point x="1465" y="-108"/>
      <point x="1481" y="-58"/>
    </contour>
  </outline>
</glyph>
<glyph name="tse-cy.sc" format="1">
  <advance width="1256"/>
  <outline>
    <contour>
      <point x="1203" y="68" type="curve"/>
      <point x="1023" y="68" type="line"/>
      <point x="1023" y="1227" type="line"/>
      <point x="1150" y="1242" type="line"/>
      <point x="1150" y="1292" type="line"/>
      <point x="752" y="1292" type="line"/>
      <point x="752" y="1242" type="line"/>
      <point x="871" y="1227" type="line"/>
      <point x="871" y="73" type="line"/>
      <point x="371" y="73" type="line"/>
      <point x="371" y="1228" type="line"/>
      <point x="524" y="1242" type="line"/>
      <point x="524" y="1292" type="line"/>
      <point x="90" y="1292" type="line"/>
      <point x="90" y="1242" type="line"/>
      <point x="222" y="1227" type="line"/>
      <point x="222" y="71" type="line"/>
      <point x="75" y="51" type="line"/>
      <point x="75" y="0" type="line"/>
      <point x="1048" y="0" type="line"/>
      <point x="1054" y="1"/>
      <point x="1069" y="-279"/>
      <point x="1069" y="-292" type="curve"/>
      <point x="1163" y="-292" type="line"/>
      <point x="1166" y="-301"/>
      <point x="1203" y="130"/>
    </contour>
  </outline>
</glyph>
<glyph name="tshe-cy.sc" format="1">
  <advance width="1364"/>
  <outline>
    <contour>
      <point x="545" y="-144" type="move" name="mark0"/>
    </contour>
    <contour>
      <point x="644" y="656" type="curve"/>
      <point x="644" y="1238" type="line"/>
      <point x="960" y="1229" type="line"/>
      <point x="995" y="892" type="line"/>
      <point x="1089" y="892" type="line"/>
      <point x="1086" y="1292" type="line"/>
      <point x="89" y="1292" type="line"/>
      <point x="69" y="892" type="line"/>
      <point x="165" y="892" type="line"/>
      <point x="209" y="1227" type="line"/>
      <point x="491" y="1236" type="line"/>
      <point x="491" y="68" type="line"/>
      <point x="286" y="52" type="line"/>
      <point x="286" y="0" type="line"/>
      <point x="797" y="0" type="line"/>
      <point x="797" y="52" type="line"/>
      <point x="644" y="68" type="line"/>
      <point x="644" y="600" type="line"/>
      <point x="688" y="637"/>
      <point x="769" y="668"/>
      <point x="885" y="668" type="curve" smooth="yes"/>
      <point x="1059" y="668"/>
      <point x="1082" y="488"/>
      <point x="1082" y="308" type="curve" smooth="yes"/>
      <point x="1082" y="66" type="line"/>
      <point x="967" y="52" type="line"/>
      <point x="967" y="0" type="line"/>
      <point x="1353" y="0" type="line"/>
      <point x="1353" y="52" type="line"/>
      <point x="1233" y="66" type="line"/>
      <point x="1233" y="354" type="line" smooth="yes"/>
      <point x="1233" y="603"/>
      <point x="1164" y="737"/>
      <point x="917" y="737" type="curve" smooth="yes"/>
      <point x="835" y="737"/>
      <point x="709" y="700"/>
    </contour>
  </outline>
</glyph>
<glyph name="u-cy.sc" format="1">
  <advance width="1055"/>
  <outline>
    <contour>
      <point x="528" y="1263" type="move" name="top"/>
    </contour>
    <contour>
      <point x="619" y="257" type="curve"/>
      <point x="949" y="1229" type="line"/>
      <point x="1029" y="1242" type="line"/>
      <point x="1029" y="1292" type="line"/>
      <point x="699" y="1292" type="line"/>
      <point x="699" y="1242" type="line"/>
      <point x="836" y="1227" type="line"/>
      <point x="633" y="535" type="line"/>
      <point x="582" y="353" type="line"/>
      <point x="533" y="533" type="line"/>
      <point x="277" y="1229" type="line"/>
      <point x="431" y="1242" type="line"/>
      <point x="431" y="1292" type="line"/>
      <point x="26" y="1292" type="line"/>
      <point x="26" y="1242" type="line"/>
      <point x="110" y="1227" type="line"/>
      <point x="503" y="289" type="line"/>
      <point x="469" y="146"/>
      <point x="432" y="90"/>
      <point x="337" y="90" type="curve" smooth="yes"/>
      <point x="320" y="90"/>
      <point x="237" y="93"/>
      <point x="229" y="96" type="curve"/>
      <point x="229" y="9" type="line"/>
      <point x="260" y="-7"/>
      <point x="310" y="-20"/>
      <point x="365" y="-20" type="curve" smooth="yes"/>
      <point x="529" y="-20"/>
      <point x="576" y="178"/>
    </contour>
  </outline>
</glyph>
<glyph name="ustraitstroke-cy.sc" format="1">
  <advance width="1081"/>
  <outline>
    <contour>
      <point x="73" y="1292" type="move" name="topleft"/>
    </contour>
    <contour>
      <point x="557" y="471" type="move" name="center"/>
    </contour>
    <contour>
      <point x="541" y="0" type="move" name="bottom"/>
    </contour>
    <contour>
      <point x="547" y="1292" type="move" name="top"/>
    </contour>
    <contour>
      <point x="557" y="471" type="move" name="_center"/>
    </contour>
    <contour>
      <point x="507" y="-144" type="move" name="mark0"/>
    </contour>
    <contour>
      <point x="471" y="69" type="line"/>
      <point x="302" y="52" type="line"/>
      <point x="302" y="0" type="line"/>
      <point x="802" y="0" type="line"/>
      <point x="802" y="52" type="line"/>
      <point x="628" y="69" type="line"/>
      <point x="628" y="482" type="line"/>
      <point x="955" y="1225" type="line"/>
      <point x="1055" y="1242" type="line"/>
      <point x="1055" y="1292" type="line"/>
      <point x="709" y="1292" type="line"/>
      <point x="709" y="1242" type="line"/>
      <point x="838" y="1229" type="line"/>
      <point x="624" y="683" type="line"/>
      <point x="569" y="530" type="line"/>
      <point x="516" y="683" type="line"/>
      <point x="292" y="1229" type="line"/>
      <point x="417" y="1242" type="line"/>
      <point x="417" y="1292" type="line"/>
      <point x="26" y="1292" type="line"/>
      <point x="26" y="1242" type="line"/>
      <point x="120" y="1224" type="line"/>
      <point x="471" y="480" type="line"/>
    </contour>
    <contour>
      <point x="869" y="513" type="line"/>
      <point x="243" y="513" type="line"/>
      <point x="243" y="453" type="line"/>
      <point x="869" y="453" type="line"/>
    </contour>
  </outline>
</glyph>
<glyph name="yeru-cy.sc" format="1">
  <advance width="1643"/>
  <outline>
    <contour>
      <point x="822" y="1263" type="move" name="top"/>
    </contour>
    <contour>
      <point x="371" y="792" type="curve"/>
      <point x="371" y="1227" type="line"/>
      <point x="520" y="1246" type="line"/>
      <point x="520" y="1292" type="line"/>
      <point x="93" y="1292" type="line"/>
      <point x="93" y="1246" type="line"/>
      <point x="220" y="1226" type="line"/>
      <point x="220" y="66" type="line"/>
      <point x="89" y="52" type="line"/>
      <point x="89" y="0" type="line"/>
      <point x="297" y="0" type="line" smooth="yes"/>
      <point x="371" y="0"/>
      <point x="505" y="-14"/>
      <point x="554" y="-14" type="curve" smooth="yes"/>
      <point x="792" y="-14"/>
      <point x="964" y="122"/>
      <point x="964" y="408" type="curve" smooth="yes"/>
      <point x="964" y="651"/>
      <point x="828" y="791"/>
      <point x="575" y="791" type="curve" smooth="yes"/>
      <point x="511" y="791"/>
      <point x="431" y="791"/>
    </contour>
    <contour>
      <point x="371" y="65" type="curve"/>
      <point x="371" y="718" type="line"/>
      <point x="421" y="718"/>
      <point x="481" y="716"/>
      <point x="532" y="716" type="curve" smooth="yes"/>
      <point x="703" y="716"/>
      <point x="805" y="614"/>
      <point x="805" y="402" type="curve" smooth="yes"/>
      <point x="805" y="148"/>
      <point x="706" y="50"/>
      <point x="530" y="50" type="curve" smooth="yes"/>
      <point x="450" y="50"/>
      <point x="412" y="57"/>
    </contour>
    <contour>
      <point x="1097" y="1292" type="line"/>
      <point x="1097" y="1242" type="line"/>
      <point x="1242" y="1228" type="line"/>
      <point x="1242" y="68" type="line"/>
      <point x="1097" y="52" type="line"/>
      <point x="1097" y="0" type="line"/>
      <point x="1543" y="0" type="line"/>
      <point x="1543" y="53" type="line"/>
      <point x="1396" y="66" type="line"/>
      <point x="1396" y="1228" type="line"/>
      <point x="1543" y="1242" type="line"/>
      <point x="1543" y="1292" type="line"/>
    </contour>
  </outline>
</glyph>
<glyph name="yusbig-cy.sc" format="1">
  <advance width="1641"/>
  <outline>
    <contour>
      <point x="644" y="601" type="curve" smooth="yes"/>
      <point x="748" y="601" type="line"/>
      <point x="748" y="68" type="line"/>
      <point x="617" y="52" type="line"/>
      <point x="617" y="0" type="line"/>
      <point x="1029" y="0" type="line"/>
      <point x="1029" y="53" type="line"/>
      <point x="893" y="68" type="line"/>
      <point x="893" y="601" type="line"/>
      <point x="996" y="601" type="line" smooth="yes"/>
      <point x="1128" y="601"/>
      <point x="1321" y="0"/>
      <point x="1430" y="0" type="curve" smooth="yes"/>
      <point x="1612" y="0" type="line"/>
      <point x="1612" y="52" type="line"/>
      <point x="1551" y="68" type="line" smooth="yes"/>
      <point x="1467" y="90"/>
      <point x="1263" y="663"/>
      <point x="1071" y="663" type="curve" smooth="yes"/>
      <point x="933" y="663" type="line"/>
      <point x="1320" y="1234" type="line"/>
      <point x="1312" y="1292" type="line"/>
      <point x="329" y="1292" type="line"/>
      <point x="321" y="1234" type="line"/>
      <point x="707" y="663" type="line"/>
      <point x="569" y="663" type="line" smooth="yes"/>
      <point x="390" y="663"/>
      <point x="173" y="90"/>
      <point x="90" y="68" type="curve" smooth="yes"/>
      <point x="30" y="52" type="line"/>
      <point x="30" y="0" type="line"/>
      <point x="210" y="0" type="line" smooth="yes"/>
      <point x="320" y="0"/>
      <point x="513" y="601"/>
    </contour>
    <contour>
      <point x="478" y="1232" type="line"/>
      <point x="1163" y="1232" type="line"/>
      <point x="821" y="661" type="line"/>
    </contour>
  </outline>
</glyph>
<glyph name="ze-cy.sc" format="1">
  <advance width="962"/>
  <outline>
    <contour>
      <point x="482" y="1263" type="move" name="top"/>
    </contour>
    <contour>
      <point x="482" y="0" type="move" name="bottom"/>
    </contour>
    <contour>
      <point x="131" y="1246" type="curve"/>
      <point x="145" y="1009" type="line"/>
      <point x="238" y="1009" type="line"/>
      <point x="266" y="1154" type="line"/>
      <point x="289" y="1207"/>
      <point x="359" y="1236"/>
      <point x="449" y="1236" type="curve" smooth="yes"/>
      <point x="581" y="1236"/>
      <point x="672" y="1169"/>
      <point x="672" y="988" type="curve" smooth="yes"/>
      <point x="672" y="796"/>
      <point x="539" y="691"/>
      <point x="413" y="691" type="curve" smooth="yes"/>
      <point x="324" y="691" type="line"/>
      <point x="324" y="630" type="line"/>
      <point x="432" y="630" type="line" smooth="yes"/>
      <point x="643" y="630"/>
      <point x="694" y="488"/>
      <point x="694" y="356" type="curve" smooth="yes"/>
      <point x="694" y="148"/>
      <point x="617" y="69"/>
      <point x="478" y="69" type="curve" smooth="yes"/>
      <point x="377" y="69"/>
      <point x="306" y="86"/>
      <point x="265" y="112" type="curve"/>
      <point x="222" y="312" type="line"/>
      <point x="151" y="312" type="line"/>
      <point x="124" y="52" type="line"/>
      <point x="181" y="21"/>
      <point x="293" y="-10"/>
      <point x="446" y="-10" type="curve" smooth="yes"/>
      <point x="749" y="-10"/>
      <point x="869" y="134"/>
      <point x="869" y="369" type="curve" smooth="yes"/>
      <point x="869" y="537"/>
      <point x="769" y="678"/>
      <point x="571" y="682" type="curve"/>
      <point x="703" y="712"/>
      <point x="835" y="822"/>
      <point x="835" y="1016" type="curve" smooth="yes"/>
      <point x="835" y="1216"/>
      <point x="689" y="1306"/>
      <point x="438" y="1306" type="curve" smooth="yes"/>
      <point x="322" y="1306"/>
      <point x="195" y="1254"/>
    </contour>
  </outline>
</glyph>
<glyph name="zhe-cy.sc" format="1">
  <advance width="1632"/>
  <outline>
    <contour>
      <point x="816" y="1263" type="move" name="top"/>
    </contour>
    <contour>
      <point x="1588" y="0" type="move" name="bottomright"/>
    </contour>
    <contour>
      <point x="1124" y="645" type="curve"/>
      <point x="1465" y="1228" type="line"/>
      <point x="1586" y="1242" type="line"/>
      <point x="1586" y="1292" type="line"/>
      <point x="1216" y="1292" type="line"/>
      <point x="1216" y="1242" type="line"/>
      <point x="1339" y="1224" type="line"/>
      <point x="1027" y="661" type="line"/>
      <point x="889" y="661" type="line"/>
      <point x="889" y="1227" type="line"/>
      <point x="1022" y="1242" type="line"/>
      <point x="1022" y="1292" type="line"/>
      <point x="614" y="1292" type="line"/>
      <point x="614" y="1242" type="line"/>
      <point x="744" y="1227" type="line"/>
      <point x="744" y="661" type="line"/>
      <point x="606" y="661" type="line"/>
      <point x="291" y="1227" type="line"/>
      <point x="415" y="1242" type="line"/>
      <point x="415" y="1292" type="line"/>
      <point x="46" y="1292" type="line"/>
      <point x="46" y="1242" type="line"/>
      <point x="167" y="1228" type="line"/>
      <point x="506" y="652" type="line"/>
      <point x="350" y="576"/>
      <point x="172" y="88"/>
      <point x="87" y="68" type="curve" smooth="yes"/>
      <point x="26" y="52" type="line"/>
      <point x="26" y="0" type="line"/>
      <point x="199" y="0" type="line" smooth="yes"/>
      <point x="310" y="0"/>
      <point x="509" y="601"/>
      <point x="640" y="601" type="curve" smooth="yes"/>
      <point x="744" y="601" type="line"/>
      <point x="744" y="68" type="line"/>
      <point x="613" y="52" type="line"/>
      <point x="613" y="0" type="line"/>
      <point x="1025" y="0" type="line"/>
      <point x="1025" y="53" type="line"/>
      <point x="889" y="68" type="line"/>
      <point x="889" y="601" type="line"/>
      <point x="992" y="601" type="line" smooth="yes"/>
      <point x="1124" y="601"/>
      <point x="1321" y="0"/>
      <point x="1431" y="0" type="curve"/>
      <point x="1608" y="0" type="line"/>
      <point x="1608" y="52" type="line"/>
      <point x="1544" y="68" type="line" smooth="yes"/>
      <point x="1460" y="88"/>
      <point x="1280" y="569"/>
    </contour>
  </outline>
</glyph>
<glyph name="zhedescender-cy.sc" format="1">
  <advance width="1637"/>
  <outline>
    <contour>
      <point x="1126" y="649" type="curve"/>
      <point x="1465" y="1228" type="line"/>
      <point x="1586" y="1242" type="line"/>
      <point x="1586" y="1292" type="line"/>
      <point x="1216" y="1292" type="line"/>
      <point x="1216" y="1242" type="line"/>
      <point x="1339" y="1224" type="line"/>
      <point x="1027" y="661" type="line"/>
      <point x="889" y="661" type="line"/>
      <point x="889" y="1227" type="line"/>
      <point x="1022" y="1242" type="line"/>
      <point x="1022" y="1292" type="line"/>
      <point x="614" y="1292" type="line"/>
      <point x="614" y="1242" type="line"/>
      <point x="744" y="1227" type="line"/>
      <point x="744" y="661" type="line"/>
      <point x="606" y="661" type="line"/>
      <point x="291" y="1227" type="line"/>
      <point x="415" y="1242" type="line"/>
      <point x="415" y="1292" type="line"/>
      <point x="46" y="1292" type="line"/>
      <point x="46" y="1242" type="line"/>
      <point x="167" y="1228" type="line"/>
      <point x="506" y="652" type="line"/>
      <point x="350" y="576"/>
      <point x="169" y="90"/>
      <point x="86" y="68" type="curve" smooth="yes"/>
      <point x="26" y="52" type="line"/>
      <point x="26" y="0" type="line"/>
      <point x="206" y="0" type="line" smooth="yes"/>
      <point x="317" y="0"/>
      <point x="509" y="601"/>
      <point x="640" y="601" type="curve" smooth="yes"/>
      <point x="744" y="601" type="line"/>
      <point x="744" y="68" type="line"/>
      <point x="613" y="52" type="line"/>
      <point x="613" y="0" type="line"/>
      <point x="1025" y="0" type="line"/>
      <point x="1025" y="53" type="line"/>
      <point x="889" y="68" type="line"/>
      <point x="889" y="601" type="line"/>
      <point x="992" y="601" type="line" smooth="yes"/>
      <point x="1124" y="601"/>
      <point x="1317" y="0"/>
      <point x="1426" y="0" type="curve" smooth="yes"/>
      <point x="1487" y="0" type="line"/>
      <point x="1495" y="-7"/>
      <point x="1506" y="-272"/>
      <point x="1506" y="-292" type="curve"/>
      <point x="1600" y="-292" type="line"/>
      <point x="1604" y="-293"/>
      <point x="1640" y="123"/>
      <point x="1640" y="68" type="curve"/>
      <point x="1545" y="68" type="line"/>
      <point x="1460" y="103"/>
      <point x="1282" y="573"/>
    </contour>
  </outline>
</glyph>
